<?xml version="1.0" standalone="no"?><!DOCTYPE svg PUBLIC "-//W3C//DTD SVG 1.1//EN" "http://www.w3.org/Graphics/SVG/1.1/DTD/svg11.dtd"><svg t="1608826808038" class="icon" viewBox="0 0 1170 1024" version="1.1" xmlns="http://www.w3.org/2000/svg" p-id="23658" xmlns:xlink="http://www.w3.org/1999/xlink" width="73.125" height="64"><defs><style type="text/css"></style></defs><path d="M1170.358984 635.428508c0 283.742386-251.33056 387.859144-574.522768 387.859144S0 919.170894 0 635.428508C0 389.697002 226.526609 67.587562 500.83751 46.516313c55.947798-4.274087 97.13575-35.403687 100.198845-46.516313 8.248988 18.748995 23.578713 33.950497 57.557704 39.79175C935.027757 92.804675 1170.358984 379.182748 1170.358984 635.428508z" fill="#8C4D39" p-id="23659"></path><path d="M1058.192696 611.080459c0 233.650087-206.979784 319.402518-473.127179 319.402518S94.357593 844.744793 94.357593 611.080459c0-202.36377 186.63513-467.59936 412.477885-484.980647 46.074657-3.533245 79.996661-29.149273 82.518372-38.310066 6.795798 15.443701 19.418602 27.952529 47.399625 32.768 227.637871 43.666922 421.439221 279.496793 421.439221 490.522713z" fill="#DBB8AE" opacity=".08" p-id="23660"></path><path d="M861.684424 123.335903c-62.686609-40.44711-131.513656-69.810087-203.090365-83.544153-33.978991-5.841252-49.308717-21.042755-57.557704-39.79175-3.063096 11.126873-44.251047 42.227979-100.198845 46.516313-72.118094 5.542066-140.945141 31.884689-203.204341 72.189329 83.658129 100.41255 470.249294 111.867103 564.051255 4.630261zM1118.343346 828.360793c-89.755826 139.620174-287.090421 194.926859-522.50713 194.926859-244.819701 0-460.646845-59.751736-550.915562-212.065948 59.409809-81.877259 961.897517-76.192723 1073.422692 17.139089z" fill="#CF8A4C" p-id="23661"></path><path d="M855.38727 568.809739c0 131.072-116.055708 179.09849-265.278331 179.098491s-275.137224-48.083478-275.137224-179.098491c0-113.462762 104.586908-262.144 231.256598-271.931659 25.829732-1.980327 44.849419-16.341259 46.274115-21.48441 3.803937 8.66215 10.884675 15.671652 26.584821 18.378573 127.638483 24.476271 236.300021 156.702275 236.300021 275.037496z" fill="#DBB8AE" opacity=".08" p-id="23662"></path></svg>