<?xml version="1.0" standalone="no"?><!DOCTYPE svg PUBLIC "-//W3C//DTD SVG 1.1//EN" "http://www.w3.org/Graphics/SVG/1.1/DTD/svg11.dtd"><svg t="1608826342848" class="icon" viewBox="0 0 1024 1024" version="1.1" xmlns="http://www.w3.org/2000/svg" p-id="13046" xmlns:xlink="http://www.w3.org/1999/xlink" width="64" height="64"><defs><style type="text/css"></style></defs><path d="M422.3 830.9c-93.5 8.4-284-11.1-284-224.1 0-181.2 211.5-225 225.9-263.3S374.8 187 374.8 187l57.5 23.9s0.2 96.9 25.5 126.9 235.4 92.7 233.6 277.5C689.6 800 515.8 822.5 422.3 830.9z" fill="#CC5AB6" p-id="13047"></path><path d="M687.9 513.5c-12.4-26.8-30.5-52.3-53.8-75.7-41.6-41.9-90.7-69.3-126.6-89.3-15.2-8.5-32.4-18-36-22.3-3.7-4.4-12.8-19.4-18.1-64.8-3.1-26.7-3.2-50.3-3.2-50.5 0-7.3-4.4-13.8-11.1-16.6l-57.5-23.9c-2.2-0.9-4.6-1.4-6.9-1.4-3.6 0-7.2 1.1-10.2 3.2-5 3.5-8 9.3-7.8 15.4 1 31.2 1.3 117.2-8.9 147.7-0.4 1.3-1.1 2.4-2 3.4-1.6 1.6-4.8 4.4-10.9 8.4-8.4 5.5-19.3 11.6-32 18.7-33.4 18.6-79.1 44.1-115.9 81.5-20.5 20.9-36.5 43.7-47.5 67.8-12.8 28.1-19.3 59-19.3 91.7 0 47.4 9.1 88.8 27 123.3 7.9 15.2 17.6 29.2 29 41.7 3.9 4.3 10.9 3.6 13.9-1.3 0.1-0.1 0.2-0.3 0.3-0.4 2-3.3 1.6-7.6-1-10.5-30.7-34.1-51.1-83-51.1-152.8 0-181.2 211.5-225 225.9-263.3 11.4-30.5 11.4-111.1 10.9-143.1-0.1-6.3 6.3-10.6 12.1-8.2l39.7 16.6c3.2 1.3 5.3 4.4 5.4 7.9 0.5 21.2 3.8 95.6 25.4 121.2 25.3 30 235.4 92.7 233.6 277.5-1.7 184.6-175.5 207.1-269 215.5-10.5 0.9-22.3 1.5-34.9 1.5-46.2 0-103.4-8-151.4-35.6-4.1-2.4-9.3-1-11.8 3-0.1 0.1-0.1 0.2-0.2 0.3-2.7 4.2-1.4 9.9 3 12.4 54 31.2 116.3 38 160.3 38 12.3 0 24.6-0.5 36.5-1.6 56.1-5 120.8-14.2 175.9-43.7 33-17.8 59-41.2 77.2-69.7 21.1-33.1 32-73.4 32.5-120 0.4-36.1-6.9-70.4-21.5-102z" fill="#1A1A1A" p-id="13048"></path><path d="M422.3 830.9c-41.6 3.7-102.4 1.9-157.1-20 57.1-4.9 267.5 11.6 280.5-184.9s-82.4-202.1-113.4-270.1S406.5 200 406.5 200l25.8 10.8s0.2 96.9 25.5 126.9 235.4 92.7 233.6 277.5C689.6 800 515.8 822.5 422.3 830.9z" fill="#9B458B" p-id="13049"></path><path d="M770.1 514.4c-8.7-13.4-7.9-48.7-7.9-48.7l-30.6-34.9s-8 32.5-43.8 49.4C652 497.2 497.4 471 446 598.6c-56.9 141.2 77.3 207.6 149.3 236.7 72.1 29 210.9 70.1 267.8-71.1 51.5-127.6-85-237.6-93-249.8z" fill="#EBE3FF" p-id="13050"></path><path d="M731.6 430.8l30.6 34.9s-0.8 35.2 7.9 48.7c8 12.3 144.5 122.2 93.1 249.8-31.1 77.2-86.7 99.9-142.5 99.9-46.3 0-92.7-15.6-125.3-28.8-72.1-29-206.2-95.5-149.3-236.7C497.4 471 652 497.2 687.8 480.3s43.8-49.5 43.8-49.5m-0.1-18.1c-1.4 0-2.9 0.2-4.3 0.5-6.5 1.7-11.5 6.7-13 13.2-0.5 1.9-7.5 25-34.1 37.6-6.1 2.9-23.1 4.5-39.5 6-30.6 2.9-72.5 6.9-111.6 22.9-21.9 9-41 21-56.8 35.7-18.4 17.1-32.7 38.4-42.8 63.3-14.6 36.3-18.6 71-11.7 103 5.9 27.6 19.9 53.3 41.6 76.4 16.9 18.1 39 35 65.5 50.2 18.5 10.6 39.4 20.6 64 30.5 50.3 20.2 93.5 30.1 132.1 30.1 34.3 0 64.6-8 90-23.7 30-18.6 53.3-48 69.2-87.5 11.5-28.5 15.3-58.3 11.3-88.7-3.3-24.9-11.8-50.5-25.4-75.9-23.8-44.5-57.4-78.4-73.6-94.7-2.8-2.8-6-6-7.2-7.4-0.7-1.3-3-6.5-4.2-20.5-0.8-9.4-0.6-17.6-0.6-17.7a18 18 0 0 0-4.5-12.3l-30.6-34.9c-3.7-3.9-8.7-6.1-13.8-6.1z" fill="#1A1A1A" p-id="13051"></path><path d="M732 560.1c-8.6-11.6-16.3-37.9-16.3-37.9s-26.4 14.6-44.7 15.7c-18.2 1.1-140.9-11.7-176.5 76.6-39.4 97.7 60.9 149.7 118.9 173.1C671.5 811 771.6 839.7 811 742c35.6-88.4-70.4-170.4-79-181.9z" fill="#EBE3FF" p-id="13052"></path><path d="M715.7 522.1s7.7 26.4 16.3 37.9c8.6 11.6 114.7 93.5 79.1 181.9-21.1 52.4-59.7 68.4-99.9 68.4-34.8 0-70.7-12-97.7-22.8-58.1-23.4-158.3-75.4-118.9-173.1 28.7-71.3 114.2-76.7 155.7-76.7 7.4 0 13.4 0.2 17.4 0.2 1.3 0 2.5 0 3.4-0.1 18.1-1.1 44.6-15.7 44.6-15.7m0-18c-3 0-6 0.8-8.7 2.2-8.9 4.9-26.8 12.9-37 13.5h-2.3c-1.6 0-3.6 0-5.9-0.1-3.2 0-7.1-0.1-11.5-0.1-34.6 0-63.6 4.1-88.4 12.6-18.6 6.3-34.8 15.2-48.1 26.2-15.9 13.2-28 29.8-35.8 49.2-10.7 26.4-13 52-6.9 76.1 5.2 20.6 16.5 40 33.7 57.6 23.4 24 56.8 44.5 102.2 62.8 40.3 16.2 74.5 24.1 104.4 24.1 25.4 0 47.8-5.8 66.5-17.2 21.9-13.4 38.8-34.4 50.1-62.5 8.4-20.7 10.6-42.7 6.7-65.2-3.1-18.3-10.4-37.1-21.6-55.9-19.3-32.6-45.6-57.9-59.7-71.5-2.8-2.7-6-5.7-6.9-6.8-4.6-6.3-10.5-22.5-13.3-32.1-1.5-5.2-5.4-9.5-10.4-11.6-2.5-0.8-4.8-1.3-7.1-1.3z" fill="#1A1A1A" p-id="13053"></path><path d="M706.7 599.1c-6.2-7.5-12.5-23.6-12.5-23.6s-17.4 7.8-29.9 7.9S567.5 572 545.7 626c-24.1 59.8 46.1 95.1 86.5 111.4 40.4 16.3 109.9 37.1 133.9-22.6 21.8-54-53.2-108.3-59.4-115.7z" fill="#EBE3FF" p-id="13054"></path><path d="M694.2 575.5s6.3 16.1 12.5 23.6 81.3 61.7 59.5 115.7c-12.2 30.2-36 39.8-61.7 39.8-25.2 0-52.2-9.2-72.2-17.2-40.4-16.3-110.6-51.7-86.5-111.4 15.3-38 61.5-43.5 91.9-43.5 12.6 0 22.5 1 26.4 1h0.2c12.4-0.2 29.9-8 29.9-8m0-18c-2.5 0-5 0.5-7.3 1.5-5.9 2.6-16.8 6.3-22.8 6.3-0.9 0-3.1-0.1-5.3-0.2-5-0.3-12.5-0.7-21.1-0.7-22.3 0-41.7 2.9-57.7 8.6-25 8.9-42.2 24.5-51 46.2-7.2 18-8.2 35.6-2.8 52.5 4.5 14 13.3 27.2 26.2 39.3 17.1 16 41 30.1 73 43 30.9 12.5 56.7 18.5 78.9 18.5 37.8 0 65-17.7 78.4-51.1 5.7-14.3 6.8-29.5 3.1-45.2-2.9-12.3-8.7-24.9-17.3-37.6-14.5-21.5-33.6-38.3-43.8-47.3-1.7-1.5-3.8-3.3-4.6-4.1-2.8-3.6-7.2-12.8-9.3-18.3-1.8-4.6-5.4-8.2-9.9-10.1-2.1-0.8-4.4-1.3-6.7-1.3z" fill="#1A1A1A" p-id="13055"></path><path d="M671.1 632.8s-59.2-7.7-67.8 13.7c-9.5 23.6 24.8 40.3 44.5 48.2 19.7 7.9 53.2 18.6 62.8-5 8.5-21.4-39.5-56.9-39.5-56.9z" fill="#EBE3FF" p-id="13056"></path><path d="M648 631.4c12.7 0 23.1 1.3 23.1 1.3s48 35.5 39.4 56.9c-4.4 10.8-13.7 14.4-24.5 14.4-12.8 0-27.6-5.1-38.3-9.4-19.7-7.9-54-24.6-44.5-48.2 5.1-12.4 27.2-15 44.8-15m0-18c-12.4 0-23 1.2-31.7 3.4-15.3 4-25.3 11.7-29.8 22.9-4 10-3.9 20.5 0.4 30.3 3.2 7.2 8.6 14.1 16.2 20.3 9.2 7.6 21.6 14.4 37.9 21 18.2 7.3 32.5 10.7 45 10.7 26.8 0 37.3-16.1 41.2-25.7 2.8-6.9 4.4-18.1-3.3-32.9-3.7-7.1-9.4-14.7-16.9-22.6-11.9-12.6-24.8-22.1-25.3-22.5-2.5-1.8-5.3-3-8.4-3.4-0.4 0-11.6-1.5-25.3-1.5z" fill="#1A1A1A" p-id="13057"></path><path d="M257.6 735c2.5 3 5.1 6 7.9 9" fill="#8E54CC" p-id="13058"></path><path d="M265.5 753c-2.4 0-4.9-1-6.6-2.9-2.8-3-5.5-6.2-8.1-9.3-3.2-3.8-2.7-9.5 1.1-12.7 3.8-3.2 9.5-2.7 12.7 1.1 2.4 2.9 5 5.8 7.6 8.7 3.4 3.7 3.1 9.4-0.6 12.7-1.8 1.6-4 2.4-6.1 2.4zM233.7 709.9c-3.1 0-6.2-1.6-7.8-4.5-22.7-39.9-29.9-81.6-21.2-124 7.9-38.5 26.7-65.2 32.3-72.4 3-3.9 8.7-4.7 12.6-1.6 3.9 3 4.7 8.7 1.6 12.6-10.6 13.8-60.8 87-9.8 176.6 2.5 4.3 1 9.8-3.4 12.3-1.3 0.6-2.8 1-4.3 1z" fill="#1A1A1A" p-id="13059"></path></svg>