<?xml version="1.0" standalone="no"?><!DOCTYPE svg PUBLIC "-//W3C//DTD SVG 1.1//EN" "http://www.w3.org/Graphics/SVG/1.1/DTD/svg11.dtd"><svg t="1608826378120" class="icon" viewBox="0 0 1024 1024" version="1.1" xmlns="http://www.w3.org/2000/svg" p-id="14559" xmlns:xlink="http://www.w3.org/1999/xlink" width="64" height="64"><defs><style type="text/css"></style></defs><path d="M318.4 217.6C377.6 70.4 614.4 11.2 694.4 196.8c16 35.2 14.4 78.4 25.6 116.8 52.8 161.6 89.6 337.6 44.8 491.2-56 188.8-395.2 188.8-472 0-54.4-132.8-28.8-283.2 0-417.6 12.8-59.2 8-126.4 25.6-169.6z" fill="#556540" p-id="14560"></path><path d="M401.6 216c3.2-8 11.2-12.8 19.2-11.2 8 3.2 12.8 11.2 11.2 19.2-11.2 36.8-17.6 70.4-20.8 97.6-1.6 8-8 16-17.6 14.4-8-1.6-16-8-14.4-17.6 3.2-28.8 11.2-64 22.4-102.4z m-24 161.6c0-9.6 8-16 16-16 9.6 0 16 8 16 16v11.2c0 9.6-6.4 16-16 16s-16-6.4-16-16v-11.2z" fill="#FFFFFF" p-id="14561"></path><path d="M608 99.2c-94.4-17.6-203.2 41.6-240 134.4-17.6 43.2-12.8 112-25.6 168-28.8 134.4-54.4 284.8 0 417.6 22.4 54.4 65.6 92.8 120 116.8-73.6-17.6-139.2-62.4-168-132.8-54.4-132.8-28.8-283.2 0-417.6 11.2-56 8-124.8 25.6-168 43.2-110.4 184-171.2 288-118.4z" fill="#99A28C" p-id="14562"></path><path d="M584 89.6c44.8 14.4 84.8 49.6 108.8 105.6 16 35.2 14.4 78.4 25.6 116.8 52.8 161.6 89.6 337.6 44.8 491.2-52.8 176-352 187.2-452.8 33.6 129.6 59.2 316.8 22.4 356.8-113.6 44.8-152 8-329.6-44.8-491.2-12.8-38.4-11.2-80-25.6-116.8-3.2-9.6-8-17.6-12.8-25.6z" fill="#394A23" p-id="14563"></path><path d="M332.8 222.4c-8 19.2-11.2 40-14.4 88-1.6 11.2-1.6 14.4-1.6 19.2-1.6 24-4.8 41.6-8 59.2-38.4 187.2-44.8 299.2 0 408 70.4 174.4 388.8 174.4 441.6 1.6 38.4-129.6 19.2-284.8-44.8-481.6-4.8-12.8-8-27.2-11.2-48 0-3.2 0-4.8-1.6-9.6-4.8-30.4-8-44.8-14.4-59.2-33.6-78.4-100.8-115.2-179.2-104-72 11.2-139.2 60.8-166.4 126.4z m-28.8-11.2c32-76.8 108.8-134.4 193.6-145.6 91.2-11.2 172.8 30.4 212.8 123.2 8 17.6 11.2 33.6 16 67.2 0 4.8 1.6 6.4 1.6 8 3.2 19.2 4.8 30.4 9.6 41.6 65.6 201.6 86.4 363.2 44.8 500.8-62.4 204.8-422.4 204.8-504 1.6-46.4-116.8-41.6-232-1.6-427.2 3.2-16 4.8-32 8-54.4 0-4.8 0-8 1.6-19.2 4.8-51.2 8-73.6 17.6-96z" fill="#333333" p-id="14564"></path><path d="M764.8 803.2C708.8 992 369.6 992 292.8 803.2 270.4 744 291.2 512 528 512s262.4 204.8 236.8 291.2z" fill="#D0D579" p-id="14565"></path><path d="M729.6 792c-48 160-336 160-401.6 0C308.8 740.8 326.4 544 528 544s224 174.4 201.6 248z" fill="#F8F9E8" p-id="14566"></path><path d="M731.2 632C696 566.4 628.8 528 528 528c-99.2 0-164.8 43.2-200 113.6-25.6 54.4-32 123.2-19.2 153.6 70.4 174.4 388.8 174.4 441.6 1.6 12.8-44.8 8-112-19.2-164.8z m-452.8 176c-16-40-9.6-118.4 20.8-180.8C339.2 545.6 416 496 528 496c113.6 0 190.4 44.8 230.4 121.6 32 59.2 36.8 134.4 20.8 188.8-59.2 204.8-419.2 204.8-500.8 1.6z" fill="#333333" p-id="14567"></path><path d="M528 656m-32 0a32 32 0 1 0 64 0 32 32 0 1 0-64 0Z" fill="#F5F1CF" p-id="14568"></path><path d="M464 720m-16 0a16 16 0 1 0 32 0 16 16 0 1 0-32 0Z" fill="#F5F1CF" p-id="14569"></path><path d="M608 768m-32 0a32 32 0 1 0 64 0 32 32 0 1 0-64 0Z" fill="#F5F1CF" p-id="14570"></path><path d="M504 776m-24 0a24 24 0 1 0 48 0 24 24 0 1 0-48 0Z" fill="#F5F1CF" p-id="14571"></path><path d="M560 152a16 16 0 1 0 32 0 16 16 0 1 0-32 0Z" fill="#97A56A" p-id="14572"></path><path d="M448 184a16 16 0 1 0 32 0 16 16 0 1 0-32 0Z" fill="#97A56A" p-id="14573"></path><path d="M480 280a16 16 0 1 0 32 0 16 16 0 1 0-32 0Z" fill="#97A56A" p-id="14574"></path><path d="M576 392a16 16 0 1 0 32 0 16 16 0 1 0-32 0Z" fill="#97A56A" p-id="14575"></path><path d="M416 456a16 16 0 1 0 32 0 16 16 0 1 0-32 0Z" fill="#97A56A" p-id="14576"></path></svg>