<?xml version="1.0" standalone="no"?><!DOCTYPE svg PUBLIC "-//W3C//DTD SVG 1.1//EN" "http://www.w3.org/Graphics/SVG/1.1/DTD/svg11.dtd"><svg t="1608826362021" class="icon" viewBox="0 0 1024 1024" version="1.1" xmlns="http://www.w3.org/2000/svg" p-id="14342" xmlns:xlink="http://www.w3.org/1999/xlink" width="64" height="64"><defs><style type="text/css"></style></defs><path d="M512 814.6v-512c-165.6 0-320-29.4-320 224s154.4 288 320 288z" fill="#F28640" p-id="14343"></path><path d="M528 830.6h-16c-103.1 0-175.3-13.8-231.1-51.8-69.1-47-104.9-128.6-104.9-252.2 0-112.7 29.8-179.9 90-213.3 45.3-25.1 88.8-29.1 200-27.3 22.5 0.4 33.2 0.5 46.1 0.5h16v544.1z m-32-512.1c-8-0.1-17.3-0.2-30.6-0.4-105-1.8-145.5 1.9-183.9 23.2-48.6 26.9-73.5 83.2-73.5 185.3 0 202.4 89.6 268.6 288 271.9v-480z" fill="#333333" p-id="14344"></path><path d="M512 814.6v-512c165.6 0 320-29.4 320 224s-154.4 288-320 288z" fill="#F28640" p-id="14345"></path><path d="M496 830.6h16c103.1 0 175.3-13.8 231.1-51.8 69.1-47 104.9-128.6 104.9-252.2 0-112.7-29.8-179.9-90-213.3-45.3-25.1-88.8-29.1-200-27.3-22.5 0.4-33.2 0.5-46.1 0.5h-16v544.1z m32-512.1c8-0.1 17.3-0.2 30.6-0.4 105-1.8 145.5 1.9 183.9 23.2 48.6 26.9 73.5 83.2 73.5 185.3 0 202.4-89.6 268.6-288 271.9v-480z" fill="#333333" p-id="14346"></path><path d="M520 862.6v-512c-165.6 0-424-77.4-424 224 0 285.3 258.4 288 424 288z" fill="#F28640" p-id="14347"></path><path d="M226.3 816.4C150.9 777.6 96 706.1 96 574.6c0-301.4 258.4-224 424-224V381c-163.2-9.4-376-47.9-376 225.6 0 101.5 32.7 167.2 82.3 209.8z" fill="#F7B68C" p-id="14348"></path><path d="M536 878.6h-16c-134.7 0-207.5-7.2-280.4-38.3C136.7 796.5 80 711 80 574.6c0-108.6 32.6-178.2 95.3-215.3 49.2-29.1 110.4-36.8 201.3-32.4 15.3 0.7 28.9 1.6 54 3.4 48.9 3.4 66.7 4.4 89.5 4.4h16v543.9z m-32-512.2c-17.8-0.4-37.4-1.6-75.7-4.3-24.9-1.7-38.2-2.6-53.3-3.3-85.1-4.1-141.1 2.9-183.5 28-52 30.8-79.6 89.7-79.6 187.8 0 123.6 49.1 197.5 140.2 236.3 64.8 27.6 131.7 35.1 251.8 35.7V366.4z" fill="#333333" p-id="14349"></path><path d="M512 814.6c158.4 0 176-114.6 176-256s-17.6-256-176-256-176 114.6-176 256 17.6 256 176 256z" fill="#F28640" p-id="14350"></path><path d="M512 830.6c-80.4 0-132.7-28.3-161.6-83.6-22.9-43.8-30.4-99.6-30.4-188.4s7.5-144.6 30.4-188.4c28.9-55.3 81.2-83.6 161.6-83.6s132.7 28.3 161.6 83.6C696.5 414 704 469.7 704 558.6s-7.5 144.6-30.4 188.4c-28.9 55.2-81.2 83.6-161.6 83.6z m0-32c125.6 0 160-65.8 160-240s-34.4-240-160-240-160 65.8-160 240 34.4 240 160 240z" fill="#333333" p-id="14351"></path><path d="M504 862.6v-512c165.6 0 424-77.4 424 224 0 285.3-258.4 288-424 288z" fill="#D9671D" p-id="14352"></path><path d="M488 878.6h16c134.7 0 207.5-7.2 280.4-38.3C887.3 796.5 944 711 944 574.6c0-108.6-32.6-178.2-95.3-215.3-49.2-29.1-110.4-36.8-201.3-32.4-15.3 0.7-28.9 1.6-54 3.4-48.9 3.4-66.7 4.4-89.5 4.4h-16v543.9z m32-512.2c17.8-0.4 37.4-1.6 75.7-4.3 24.9-1.7 38.2-2.6 53.3-3.3 85.1-4.1 141.1 2.9 183.5 28 52 30.8 79.6 89.7 79.6 187.8 0 123.6-49.1 197.5-140.2 236.3-64.8 27.6-131.7 35.1-251.8 35.7V366.4z" fill="#333333" p-id="14353"></path><path d="M512 862.6v-512c-165.6 0-320-29.4-320 224s154.4 288 320 288z" fill="#F28640" p-id="14354"></path><path d="M317 829.2C242.6 793 192 719.7 192 574.6c0-253.4 154.4-224 320-224V382c-146.3-2.5-272-4.1-272 224.5 0 111.2 29.7 180.2 77 222.7z" fill="#F7B68C" p-id="14355"></path><path d="M528 878.6h-16c-103.1 0-175.3-13.8-231.1-51.8-69.1-47-104.9-128.6-104.9-252.2 0-112.7 29.8-179.9 90-213.3 45.3-25.1 88.8-29.1 200-27.3 22.5 0.4 33.2 0.5 46.1 0.5h16v544.1z m-32-512.1c-8-0.1-17.3-0.2-30.6-0.4-105-1.8-145.5 1.9-183.9 23.2-48.6 26.9-73.5 83.2-73.5 185.3 0 202.4 89.6 268.6 288 271.9v-480z" fill="#333333" p-id="14356"></path><path d="M512 862.6v-512c165.6 0 320-29.4 320 224s-154.4 288-320 288z" fill="#F28640" p-id="14357"></path><path d="M512 810.9c132.1-13.6 240-72.6 240-284.4 0-81.7-16-133.9-43.3-167.3C782.1 377.9 832 430.6 832 574.6c0 253.4-154.4 288-320 288v-51.7z" fill="#D9671D" p-id="14358"></path><path d="M496 878.6h16c103.1 0 175.3-13.8 231.1-51.8 69.1-47 104.9-128.6 104.9-252.2 0-112.7-29.8-179.9-90-213.3-45.3-25.1-88.8-29.1-200-27.3-22.5 0.4-33.2 0.5-46.1 0.5h-16v544.1z m32-512.1c8-0.1 17.3-0.2 30.6-0.4 105-1.8 145.5 1.9 183.9 23.2 48.6 26.9 73.5 83.2 73.5 185.3 0 202.4-89.6 268.6-288 271.9v-480z" fill="#333333" p-id="14359"></path><path d="M512 862.6c158.4 0 176-114.6 176-256s-17.6-256-176-256-176 114.6-176 256 17.6 256 176 256z" fill="#F28640" p-id="14360"></path><path d="M419 843.1c-73-38.5-83-129.9-83-236.6 0-141.4 17.6-256 176-256 59.2 0 98.7 16 125 43.4-23.7-12.5-54.1-19.4-93-19.4-158.4 0-176 114.6-176 256 0 88.6 6.9 166.7 51 212.6z" fill="#F7B68C" p-id="14361"></path><path d="M374.2 803.5c20.4 7.2 44.7 11.1 73.8 11.1 158.4 0 176-114.6 176-256 0-79.2-5.5-150-38.2-196.9C676.3 393.6 688 491.1 688 606.6c0 141.4-17.6 256-176 256-69.7 0-112.1-22.2-137.8-59.1z" fill="#D9671D" p-id="14362"></path><path d="M512 878.6c-80.4 0-132.7-28.3-161.6-83.6-22.9-43.8-30.4-99.6-30.4-188.4s7.5-144.6 30.4-188.4c28.9-55.3 81.2-83.6 161.6-83.6s132.7 28.3 161.6 83.6C696.5 462 704 517.7 704 606.6s-7.5 144.6-30.4 188.4c-28.9 55.2-81.2 83.6-161.6 83.6z m0-32c125.6 0 160-65.8 160-240s-34.4-240-160-240-160 65.8-160 240 34.4 240 160 240z" fill="#333333" p-id="14363"></path><path d="M586.1 161.4c-46.6 23.5-78.5 51.4-95.7 83.6-17.2 32.2-25.8 66.2-25.8 101.9h94.2c-12.9-38.6-16.2-69.6-10-92.7s18.6-54.2 37.3-92.8z" fill="#CCD3A1" p-id="14364"></path><path d="M578.8 147.1c13.7-6.9 28.3 7.5 21.6 21.2-18.3 37.8-30.4 67.9-36.2 89.9-5.2 19.7-2.2 47.6 9.8 83.6 3.5 10.4-4.3 21.1-15.2 21.1h-94.2c-8.8 0-16-7.2-16-16 0-38.4 9.2-74.9 27.6-109.4 19-35.5 53.3-65.5 102.6-90.4z m-74.3 105.4c-13.4 25-21.1 51.1-23.3 78.4h56c-8.4-31.9-9.9-58.8-4-80.9 3.6-13.7 9.3-29.7 16.9-48.1-20.7 15.5-35.9 32.4-45.6 50.6z" fill="#333333" p-id="14365"></path><path d="M417.2 439.8c2.5-8.5 11.4-13.3 19.9-10.9 8.5 2.5 13.3 11.4 10.9 19.9-11 37.4-17.7 69.7-20.3 96.9-0.8 8.8-8.7 15.2-17.5 14.4-8.8-0.8-15.2-8.7-14.4-17.5 2.8-29.3 9.9-63.6 21.4-102.8z m-24.2 162c0.1-8.8 7.3-15.9 16.2-15.8s15.9 7.3 15.8 16.2c0 3.8-0.1 7.7-0.1 11.7 0 8.8-7.2 16-16 16s-16-7.2-16-16c0-4.2 0.1-8.2 0.1-12.1z" fill="#FFFFFF" p-id="14366"></path></svg>