<?xml version="1.0" standalone="no"?><!DOCTYPE svg PUBLIC "-//W3C//DTD SVG 1.1//EN" "http://www.w3.org/Graphics/SVG/1.1/DTD/svg11.dtd"><svg t="1608826506486" class="icon" viewBox="0 0 1024 1024" version="1.1" xmlns="http://www.w3.org/2000/svg" p-id="20017" xmlns:xlink="http://www.w3.org/1999/xlink" width="64" height="64"><defs><style type="text/css"></style></defs><path d="M360.128846 1024c-55.44 0-107.108571-9.885714-153.6-29.371429-2.217143-0.754286-8.925714-1.748571-27.108572-1.748571l-18.662857 0.068571c-26.285714 0-70.194286-0.068571-99.702857-29.6-30.022857-30.057143-29.714286-74.16-29.542857-109.6 0.068571-12.125714 0.182857-30.468571-1.805714-36.228571C-45.951154 636.777143 26.140274 392.114286 209.145989 208.914286 339.888846 78.102857 509.865989 0 663.877417 0c55.44 0 107.108571 9.885714 153.6 29.371429 2.217143 0.754286 8.925714 1.748571 27.108572 1.748571l18.48-0.068571c26.285714 0 70.308571 0 99.885714 29.6 30.022857 30.057143 29.714286 74.16 29.542857 109.6-0.068571 12.125714-0.182857 30.468571 1.805714 36.228571 75.657143 180.742857 3.565714 425.405714-179.428571 608.605714C684.117417 945.897143 514.140274 1024 360.128846 1024z" fill="#25467A" p-id="20018"></path><path d="M778.883131 778.88C608.003131 949.782857 382.540274 1012.96 226.048846 947.428571c-33.382857-14.011429-103.245714 5.714286-129.142857-20.262857s-6.251429-95.805714-20.262858-129.142857C11.043131 641.462857 74.220274 416 245.123131 245.12S641.465989 11.04 797.957417 76.571429c33.382857 14.011429 103.245714-5.714286 129.142857 20.262857s6.251429 95.805714 20.262857 129.142857c65.6 156.56 2.422857 382.022857-168.48 552.902857z" fill="#FEDC33" p-id="20019"></path><path d="M948.483131 507.908571c-29.954286 93.817143-87.291429 188.662857-169.6 270.971429C608.003131 949.714286 382.597417 1012.994286 226.048846 947.428571c-33.405714-14.08-103.291429 5.634286-129.142857-20.342857s-6.262857-95.748571-20.342858-129.142857a320 320 0 0 1-22.662857-88.96A636.32 636.32 0 0 0 403.203131 812.8c230.525714 0 432.64-121.988571 545.28-304.891429z" fill="#F0D030" p-id="20020"></path><path d="M512.003131 547.108571a64.068571 64.068571 0 0 1-64-64 12.8 12.8 0 1 1 25.6 0 38.4 38.4 0 0 0 76.8 0 12.8 12.8 0 1 1 25.6 0 64.068571 64.068571 0 0 1-64 64z" fill="#25467A" p-id="20021"></path><path d="M384.003131 380.708571m-38.4 0a38.4 38.4 0 1 0 76.8 0 38.4 38.4 0 1 0-76.8 0Z" fill="#25467A" p-id="20022"></path><path d="M640.003131 380.708571m-38.4 0a38.4 38.4 0 1 0 76.8 0 38.4 38.4 0 1 0-76.8 0Z" fill="#25467A" p-id="20023"></path><path d="M332.803131 444.708571h-51.2a25.6 25.6 0 1 0 0 51.2h51.2a25.6 25.6 0 1 0 0-51.2zM742.403131 444.708571h-51.2a25.6 25.6 0 1 0 0 51.2h51.2a25.6 25.6 0 0 0 0-51.2z" fill="#FBEAAE" p-id="20024"></path><path d="M204.803131 768m-25.6 0a25.6 25.6 0 1 0 51.2 0 25.6 25.6 0 1 0-51.2 0Z" fill="#E3C029" p-id="20025"></path><path d="M256.003131 870.4m-25.6 0a25.6 25.6 0 1 0 51.2 0 25.6 25.6 0 1 0-51.2 0Z" fill="#E3C029" p-id="20026"></path><path d="M576.003131 857.6m-25.6 0a25.6 25.6 0 1 0 51.2 0 25.6 25.6 0 1 0-51.2 0Z" fill="#E3C029" p-id="20027"></path><path d="M128.003131 819.2m-25.6 0a25.6 25.6 0 1 0 51.2 0 25.6 25.6 0 1 0-51.2 0Z" fill="#E3C029" p-id="20028"></path></svg>