<?xml version="1.0" standalone="no"?><!DOCTYPE svg PUBLIC "-//W3C//DTD SVG 1.1//EN" "http://www.w3.org/Graphics/SVG/1.1/DTD/svg11.dtd"><svg t="1608826406335" class="icon" viewBox="0 0 1024 1024" version="1.1" xmlns="http://www.w3.org/2000/svg" p-id="15412" xmlns:xlink="http://www.w3.org/1999/xlink" width="64" height="64"><defs><style type="text/css"></style></defs><path d="M566.3 742.9c-182.9 0-315.8-94.7-361-207.2-25.1-62.6-48.7-90-65.9-110-16.1-18.7-28.8-33.5-32.6-63-7.3-57.6 13.6-137.3 96.6-172.3 87.3-36.7 146.2-1.9 203.2 31.8L420 230c20.8 12.1 66.8 15.8 120 20 90.1 7.2 202.3 16.1 284.6 70.9 66.9 44.5 99.8 127.3 84 210.9-18.6 98-100.6 171.9-219.3 197.5-43 9.3-84.1 13.6-123 13.6zM134.5 359.1c2.7 21.2 11 30.9 26.1 48.4 18.5 21.5 43.8 50.9 70.7 117.8C272 626.8 426 757.7 683.4 702.1c109-23.6 181.2-87.5 197.8-175.5 13.5-71.4-15.4-144.8-72.1-182.5-76.3-50.8-184.4-59.4-271.4-66.3-58.8-4.8-105.4-8.5-131.7-23.8l-13.6-8c-55.7-32.9-103.8-61.4-178.2-30.1-88.5 37.3-82 125.8-79.7 143.2z" fill="#000202" p-id="15413"></path><path d="M566.3 876.3c-182.9 0-315.8-94.7-361-207.2l-6.8-16.8c-43.1-107.5-62.8-156.6-102.4-199.4-5.2-5.6-4.9-14.4 0.8-19.7 5.6-5.2 14.4-4.9 19.7 0.7 43.1 46.6 63.4 97.2 107.8 208l6.8 16.8C272 760.2 426 891.1 683.4 835.5c41.3-8.9 77.5-23.7 107.5-43.8 6.4-4.3 15-2.6 19.3 3.8 4.3 6.4 2.6 15-3.8 19.3-33 22.1-72.4 38.2-117.2 47.8-42.9 9.4-84 13.7-122.9 13.7zM828.5 793.9c-3.8 0-7.5-1.5-10.3-4.5-5.2-5.7-4.8-14.5 0.8-19.7 3.2-2.9 6.2-5.9 9.1-8.9 5.4-5.5 14.2-5.7 19.7-0.3s5.6 14.2 0.3 19.7c-3.3 3.4-6.7 6.7-10.3 10-2.6 2.5-5.9 3.7-9.3 3.7zM861.8 755.6c-2.7 0-5.5-0.8-7.9-2.4-6.3-4.3-7.9-13-3.6-19.3 11.4-16.6 20.1-34.6 25.9-53.5 2.2-7.3 10-11.5 17.4-9.2 7.3 2.2 11.5 10 9.2 17.4-6.6 21.6-16.5 42.2-29.5 61.1-2.7 3.8-7.1 5.9-11.5 5.9z" fill="#000202" p-id="15414"></path><path d="M743.5 369.8c-98.7-65.7-261.4-42-307.6-68.9-46.3-26.9-89-57.6-155.5-29.6s-70.8 92-67.2 120.1c5.3 41.9 37.6 37.6 74.4 129.2 36.8 91.6 167.1 182 356.5 141.1 189.4-41 198.1-226.2 99.4-291.9zM325 398.1c-20.8 0-37.7-16.9-37.7-37.7 0-20.8 16.9-37.7 37.7-37.7s37.7 16.9 37.7 37.7a37.6 37.6 0 0 1-37.7 37.7z" fill="#FF8E31" p-id="15415"></path><path d="M325.2 360.8m-37.4 0a37.4 37.4 0 1 0 74.8 0 37.4 37.4 0 1 0-74.8 0Z" fill="#FFFFFF" p-id="15416"></path><path d="M325.2 412.1c-28.3 0-51.3-23-51.3-51.3 0-28.3 23-51.3 51.3-51.3s51.3 23 51.3 51.3c0 28.2-23 51.3-51.3 51.3z m0-74.8c-12.9 0-23.5 10.5-23.5 23.5 0 12.9 10.5 23.5 23.5 23.5 12.9 0 23.5-10.5 23.5-23.5s-10.5-23.5-23.5-23.5z" fill="#F4702A" p-id="15417"></path></svg>