<?xml version="1.0" standalone="no"?><!DOCTYPE svg PUBLIC "-//W3C//DTD SVG 1.1//EN" "http://www.w3.org/Graphics/SVG/1.1/DTD/svg11.dtd"><svg t="1608874758672" class="icon" viewBox="0 0 1176 1024" version="1.1" xmlns="http://www.w3.org/2000/svg" p-id="2690" width="55.125" height="48" xmlns:xlink="http://www.w3.org/1999/xlink"><defs><style type="text/css"></style></defs><path d="M666.255736 1019.999446c-6.710149 0-13.831703-0.326286-21.166052-0.964673-81.202738-7.093181-125.591865-14.654512-142.9276-36.558255-13.916821-17.576903-10.214181-42.970491-4.596381-81.387161 5.532681-37.90596 13.108199-89.813859 8.412513-161.724529-5.405004-82.763237-32.628633-124.740683-80.862265-124.740683-50.900668 0-107.674489 46.814995-108.241944 47.297331l-0.3121 0.255355-0.354659 0.184422c-2.993322 1.617245-74.237234 39.594137-148.829127 39.594138-45.098446 0-81.599956-14.016126-108.525671-41.679533-38.785514-39.849492-57.156854-107.887285-54.603308-202.24078 2.312377-85.628883 32.557701-162.646643 89.870605-228.911141 45.722646-52.844199 108.653348-98.964063 187.061372-137.068632C414.43362 27.280375 548.225202 7.816686 549.55872 7.632263c0.808623-0.127677 22.400266-3.603336 58.518745-3.603336a613.90064 613.90064 0 0 1 213.58987 39.040869c101.985758 38.303178 190.593777 102.808567 263.355629 191.757058 82.848356 101.248067 108.029149 200.141199 70.931811 278.449919-31.039761 65.498435-104.439999 107.816353-186.976255 107.816353a241.976781 241.976781 0 0 1-114.696738-29.011111c-29.436702-15.902912-54.645867-23.974952-74.932366-23.974952-17.917376 0-32.28816 6.369677-42.715137 18.938793-33.607492 40.487878-18.442271 132.543183-17.023634 140.657782a632.711756 632.711756 0 0 1 37.962705 93.771855c21.591643 69.839461 22.173284 122.399934 1.744923 156.191848C742.280452 1005.813084 710.999523 1019.999446 666.255736 1019.999446z" fill="#DFE0D5" p-id="2691"></path><path d="M608.077465 8.043667c99.55989 0 308.283838 26.954088 473.824499 229.336733C1263.941364 459.850932 1126.37621 617.106758 968.935961 617.106758a237.252722 237.252722 0 0 1-112.78158-28.528775c-32.004433-17.307362-57.142667-24.457289-76.847524-24.457288-94.552104 0-63.625835 164.930648-63.625835 164.930647s150.517303 286.919177-49.425286 286.919177q-9.831149 0-20.811393-0.950486c-230.783741-20.087889-120.413843-45.169377-135.465573-275.91056-6.525727-100.169904-44.233077-128.500069-84.834446-128.500069-52.943504 0-110.823862 48.233632-110.823862 48.233632S241.842337 697.969023 167.406494 697.969023C86.359807 697.969023 3.057487 651.593805 8.334814 458.120196c9.930454-371.2571 541.791361-446.515752 541.791361-446.515752s21.747693-3.560777 57.965476-3.560777m0-8.043667c-35.621956 0-57.355463 3.362168-59.171317 3.660081-2.255632 0.326286-34.898451 5.092904-84.04001 17.718767-45.992186 11.81724-115.491175 33.040038-185.415754 67.030562-78.904547 38.303178-142.275027 84.791887-188.352332 138.061677-57.95129 66.988003-88.508714 144.842759-90.792718 231.436314-2.581918 95.474218 16.172453 164.561802 55.752403 205.163171 27.705965 28.457843 65.186335 42.899559 111.405503 42.899559 75.599124 0 147.708404-38.445042 150.744285-40.076473l0.709318-0.383032 0.6242-0.510709c0.553268-0.46815 56.305672-46.361032 105.674213-46.361032 20.470921 0 36.458951 7.717381 48.857831 23.59192 15.604998 20.016957 25.053116 52.773268 27.96132 97.375191 4.667313 71.499266-2.837272 123.165997-8.38414 160.887534-5.759663 39.452273-9.561608 65.526807 5.433377 84.465601 16.342689 20.641157 51.751849 29.890665 145.736499 38.06201 7.44784 0.652573 14.682885 0.978859 21.506525 0.978859 46.247541 0 78.691751-14.881494 96.467264-44.218891 11.746308-19.435316 16.810839-45.169377 15.037544-76.478679-1.418636-24.386357-6.894572-52.290931-16.385249-82.976033a626.49813 626.49813 0 0 0-38.132941-93.899532c-1.858413-10.937685-15.505694-98.495913 16.30013-136.799091 9.774404-11.760494 22.69818-17.477598 39.62251-17.477598 19.619739 0 44.190518 7.901804 73.017206 23.492616a245.991521 245.991521 0 0 0 116.611898 29.493447c40.516251 0 79.656424-9.930454 113.192984-28.840875 34.728215-19.534621 61.49788-47.651991 77.457538-81.302042a176.733701 176.733701 0 0 0 16.016403-58.164085 214.043834 214.043834 0 0 0-4.411959-67.441966c-11.093735-50.50345-39.040869-103.376022-83.046964-157.156521-73.230002-89.501759-162.405475-154.432739-265.057992-192.934527A617.95794 617.95794 0 0 0 608.077465 0z" p-id="2692"></path><path d="M666.255736 1019.999446c-6.710149 0-13.831703-0.326286-21.166052-0.964673-81.202738-7.093181-125.591865-14.654512-142.9276-36.558255-13.916821-17.576903-10.214181-42.970491-4.596381-81.387161 5.532681-37.90596 13.108199-89.813859 8.412513-161.724529-5.405004-82.763237-32.628633-124.740683-80.862265-124.740683-50.900668 0-107.674489 46.814995-108.241944 47.297331l-0.3121 0.255355-0.354659 0.184422c-2.993322 1.617245-74.237234 39.594137-148.829127 39.594138-45.098446 0-81.599956-14.016126-108.525671-41.679533-38.785514-39.849492-57.156854-107.887285-54.603308-202.24078 2.312377-85.628883 32.557701-162.646643 89.870605-228.911141 45.722646-52.844199 108.653348-98.964063 187.061372-137.068632C414.43362 27.280375 548.225202 7.816686 549.55872 7.632263c0.808623-0.127677 22.400266-3.603336 58.518745-3.603336a613.90064 613.90064 0 0 1 213.58987 39.040869c101.985758 38.303178 190.593777 102.808567 263.355629 191.757058 82.848356 101.248067 108.029149 200.141199 70.931811 278.449919-31.039761 65.498435-104.439999 107.816353-186.976255 107.816353a241.976781 241.976781 0 0 1-114.696738-29.011111c-29.436702-15.902912-54.645867-23.974952-74.932366-23.974952-17.917376 0-32.28816 6.369677-42.715137 18.938793-33.607492 40.487878-18.442271 132.543183-17.023634 140.657782a632.711756 632.711756 0 0 1 37.962705 93.771855c21.591643 69.839461 22.173284 122.399934 1.744923 156.191848C742.280452 1005.813084 710.999523 1019.999446 666.255736 1019.999446z" fill="#FAF9EC" p-id="2693"></path><path d="M608.077465 8.043667c99.55989 0 308.283838 26.954088 473.824499 229.336733C1263.941364 459.850932 1126.37621 617.106758 968.935961 617.106758a237.252722 237.252722 0 0 1-112.78158-28.528775c-32.004433-17.307362-57.142667-24.457289-76.847524-24.457288-94.552104 0-63.625835 164.930648-63.625835 164.930647s150.517303 286.919177-49.425286 286.919177q-9.831149 0-20.811393-0.950486c-230.783741-20.087889-120.413843-45.169377-135.465573-275.91056-6.525727-100.169904-44.233077-128.500069-84.834446-128.500069-52.943504 0-110.823862 48.233632-110.823862 48.233632S241.842337 697.969023 167.406494 697.969023C86.359807 697.969023 3.057487 651.593805 8.334814 458.120196c9.930454-371.2571 541.791361-446.515752 541.791361-446.515752s21.747693-3.560777 57.965476-3.560777m0-8.043667c-35.621956 0-57.355463 3.362168-59.171317 3.660081-2.255632 0.326286-34.898451 5.092904-84.04001 17.718767-45.992186 11.81724-115.491175 33.040038-185.415754 67.030562-78.904547 38.303178-142.275027 84.791887-188.352332 138.061677-57.95129 66.988003-88.508714 144.842759-90.792718 231.436314-2.581918 95.474218 16.172453 164.561802 55.752403 205.163171 27.705965 28.457843 65.186335 42.899559 111.405503 42.899559 75.599124 0 147.708404-38.445042 150.744285-40.076473l0.709318-0.383032 0.6242-0.510709c0.553268-0.46815 56.305672-46.361032 105.674213-46.361032 20.470921 0 36.458951 7.717381 48.857831 23.59192 15.604998 20.016957 25.053116 52.773268 27.96132 97.375191 4.667313 71.499266-2.837272 123.165997-8.38414 160.887534-5.759663 39.452273-9.561608 65.526807 5.433377 84.465601 16.342689 20.641157 51.751849 29.890665 145.736499 38.06201 7.44784 0.652573 14.682885 0.978859 21.506525 0.978859 46.247541 0 78.691751-14.881494 96.467264-44.218891 11.746308-19.435316 16.810839-45.169377 15.037544-76.478679-1.418636-24.386357-6.894572-52.290931-16.385249-82.976033a626.49813 626.49813 0 0 0-38.132941-93.899532c-1.858413-10.937685-15.505694-98.495913 16.30013-136.799091 9.774404-11.760494 22.69818-17.477598 39.62251-17.477598 19.619739 0 44.190518 7.901804 73.017206 23.492616a245.991521 245.991521 0 0 0 116.611898 29.493447c40.516251 0 79.656424-9.930454 113.192984-28.840875 34.728215-19.534621 61.49788-47.651991 77.457538-81.302042a176.733701 176.733701 0 0 0 16.016403-58.164085 214.043834 214.043834 0 0 0-4.411959-67.441966c-11.093735-50.50345-39.040869-103.376022-83.046964-157.156521-73.230002-89.501759-162.405475-154.432739-265.057992-192.934527A617.95794 617.95794 0 0 0 608.077465 0z" p-id="2694"></path><path d="M322.392502 442.614502a72.251143 72.251143 0 1 1 72.251143-72.350447 72.350447 72.350447 0 0 1-72.251143 72.350447z" fill="#FCFAFB" p-id="2695"></path><path d="M322.392502 300.084121A70.23668 70.23668 0 1 1 252.155822 370.264055a70.23668 70.23668 0 0 1 70.23668-70.23668m0-4.01474A74.265606 74.265606 0 1 0 396.643922 370.264055a74.336538 74.336538 0 0 0-74.265607-74.265607z" fill="#1E1B1E" p-id="2696"></path><path d="M854.182477 442.614502a72.251143 72.251143 0 1 1 72.251143-72.350447 72.350447 72.350447 0 0 1-72.251143 72.350447z" fill="#FCFAFB" p-id="2697"></path><path d="M854.182477 300.084121A70.23668 70.23668 0 1 1 783.945798 370.264055a70.23668 70.23668 0 0 1 70.236679-70.23668m0-4.01474A74.265606 74.265606 0 1 0 928.448083 370.264055a74.336538 74.336538 0 0 0-74.265606-74.265607z" fill="#1E1B1E" p-id="2698"></path><path d="M322.378315 370.3208m-10.029758 0a10.029758 10.029758 0 1 0 20.059516 0 10.029758 10.029758 0 1 0-20.059516 0Z" fill="#1E1B1E" p-id="2699"></path><path d="M854.182477 370.3208m-10.029758 0a10.029758 10.029758 0 1 0 20.059516 0 10.029758 10.029758 0 1 0-20.059516 0Z" fill="#1E1B1E" p-id="2700"></path></svg>