<?xml version="1.0" standalone="no"?><!DOCTYPE svg PUBLIC "-//W3C//DTD SVG 1.1//EN" "http://www.w3.org/Graphics/SVG/1.1/DTD/svg11.dtd"><svg t="1608825247338" class="icon" viewBox="0 0 1024 1024" version="1.1" xmlns="http://www.w3.org/2000/svg" p-id="7421" xmlns:xlink="http://www.w3.org/1999/xlink" width="64" height="64"><defs><style type="text/css"></style></defs><path d="M340 152.8c22.4-1.6 30.4 138.4 57.6 174.4 28 36 83.2-31.2 88 25.6l-9.6 592c1.6 21.6-12.8 40-32.8 42.4l-60 5.6c-20 1.6-37.6-14.4-40-36v-240l-65.6-349.6c-8.8-115.2 18.4-211.2 62.4-214.4z" fill="#52DDB2" p-id="7422"></path><path d="M476 944.8l9.6-592c-2.4-30.4-20-25.6-39.2-20-27.2 8-46.4 33.6-46.4 61.6l13.6 555.2c0 16.8 10.4 31.2 24 36.8l4.8-0.8c20.8-0.8 35.2-19.2 33.6-40.8z" fill="#2B9E7D" p-id="7423"></path><path d="M544 109.6c-44 0-80 132.8-80 248l13.6 592.8c0.8 21.6 16.8 39.2 36 39.2h60c20 0 36-17.6 36-39.2L624 357.6c0-115.2-36-248-80-248z" fill="#52DDB2" p-id="7424"></path><path d="M289.6 462.4c-45.6-54.4-65.6-112-45.6-128.8 6.4-5.6 17.6-6.4 29.6-2.4 54.4 16.8 66.4 88.8 23.2 124.8l-7.2 6.4z" fill="#FFFFFF" p-id="7425"></path><path d="M280.8 280h-3.2c-12.8-1.6-22.4-14.4-20-27.2 11.2-75.2 40.8-120.8 80.8-124 17.6-1.6 44 4.8 69.6 42.4 7.2 11.2 4.8 25.6-6.4 33.6-11.2 7.2-25.6 4.8-33.6-6.4-11.2-16.8-20.8-22.4-26.4-21.6-10.4 0.8-28.8 27.2-37.6 83.2-0.8 12-11.2 20-23.2 20zM328.8 672c-6.4 0-12.8-2.4-16.8-7.2-4.8-4-7.2-10.4-7.2-16.8s2.4-12.8 7.2-16.8c8.8-8.8 24.8-8.8 33.6 0 4.8 4.8 7.2 10.4 7.2 16.8s-2.4 12.8-7.2 16.8c-4 4.8-10.4 7.2-16.8 7.2zM380 1016c-30.4 0-56.8-24-60.8-56.8V796.8c0-13.6 10.4-24 24-24s24 10.4 24 24v158.4c1.6 8 7.2 13.6 13.6 13.6h50.4c13.6 0 24 10.4 24 24s-10.4 24-24 24H384c-0.8-0.8-2.4-0.8-4-0.8zM316 589.6c-11.2 0-21.6-8-23.2-19.2l-8-43.2c-6.4-29.6-24-60.8-40-86.4-36-56-41.6-103.2-15.2-124.8 25.6-21.6 70.4-8.8 118.4 34.4 9.6 8.8 10.4 24 1.6 33.6-8.8 9.6-24 10.4-33.6 1.6-27.2-24.8-47.2-32-55.2-32.8-0.8 8 4 29.6 24 61.6 18.4 29.6 39.2 64.8 47.2 103.2l8 44c2.4 12.8-6.4 25.6-19.2 28h-4.8z" fill="#444B54" p-id="7426"></path><path d="M748 152.8c-44-4-88 85.6-97.6 200l-100 64.8 61.6 527.2c-1.6 21.6 12.8 40 32.8 42.4l60 5.6c20 1.6 37.6-14.4 40-36v-240l65.6-349.6c9.6-115.2-18.4-211.2-62.4-214.4z" fill="#52DDB2" p-id="7427"></path><path d="M612 944.8c-1.6 21.6 12.8 40 32.8 42.4l17.6 1.6c15.2-4 27.2-19.2 28-37.6L704 357.6v-4c0-33.6-50.4-36-53.6-2.4v1.6L612.8 560l-0.8 384.8z" fill="#2B9E7D" p-id="7428"></path><path d="M782.4 542.4c45.6-54.4 65.6-112 45.6-128.8-6.4-5.6-17.6-6.4-29.6-2.4-54.4 16.8-66.4 88-23.2 124.8l7.2 6.4z" fill="#E8D972" p-id="7429"></path><path d="M809.6 281.6c-11.2 0-21.6-8-23.2-19.2-0.8-3.2-4.8-17.6-6.4-24.8l-1.6-7.2c-9.6-38.4-24-53.6-32-54.4-4.8-0.8-14.4 4.8-26.4 21.6-7.2 11.2-22.4 13.6-33.6 6.4-11.2-7.2-13.6-22.4-6.4-33.6 25.6-37.6 52-44 69.6-42.4 33.6 3.2 60 35.2 73.6 89.6l1.6 6.4c3.2 12.8 6.4 23.2 7.2 28 2.4 12.8-5.6 25.6-19.2 28 0 1.6-1.6 1.6-3.2 1.6zM708 1016h-51.2c-13.6 0-24-10.4-24-24s10.4-24 24-24h50.4c6.4 0.8 12-5.6 13.6-13.6V771.2c0-16.8-13.6-31.2-31.2-31.2-13.6 0-24-10.4-24-24s10.4-24 24-24c44 0 79.2 35.2 79.2 79.2V958.4c-4 33.6-30.4 57.6-60.8 57.6z" fill="#444B54" p-id="7430"></path><path d="M696 740c-13.6 0-24-10.4-24-24s10.4-24 24-24 24.8-10.4 25.6-24v-2.4c4.8-57.6 24.8-112.8 59.2-160 27.2-38.4 32-64 31.2-72.8-8 0.8-28 8.8-55.2 32.8-9.6 8.8-24.8 8-33.6-1.6s-8-24.8 1.6-33.6c48.8-43.2 92.8-56.8 118.4-34.4 34.4 28.8 10.4 90.4-24 138.4-28.8 40-46.4 87.2-50.4 136.8v0.8c-1.6 37.6-33.6 68-72.8 68z" fill="#444B54" p-id="7431"></path><path d="M544 109.6c-44 0-80 132.8-80 248l13.6 592.8c0.8 21.6 16.8 39.2 36 39.2h60c20 0 36-17.6 36-39.2l1.6-80L584 716l35.2-144 4.8-214.4c0-115.2-36-248-80-248z" fill="#52DDB2" p-id="7432"></path><path d="M610.4 950.4L619.2 560c0.8-47.2-70.4-52-73.6-4-0.8 13.6-1.6 27.2-1.6 41.6l5.6 249.6 2.4 82.4c0.8 24.8 26.4 43.2 48.8 32.8 5.6-3.2 9.6-6.4 9.6-12z" fill="#2B9E7D" p-id="7433"></path><path d="M472 565.6c-40.8-57.6-56-116.8-34.4-132 7.2-4.8 17.6-4.8 29.6 0.8C520 455.2 526.4 527.2 480 560l-8 5.6zM480 368c46.4-32.8 40.8-104.8-12-126.4-12-4.8-22.4-5.6-29.6-0.8-22.4 15.2-7.2 74.4 33.6 132.8l8-5.6z" fill="#FFFFFF" p-id="7434"></path><path d="M621.6 453.6c40.8-57.6 56-116.8 34.4-132-7.2-4.8-17.6-4.8-29.6 0.8-52.8 21.6-58.4 94.4-12 126.4l7.2 4.8zM805.6 389.6c40.8-57.6 56-116.8 34.4-132-7.2-4.8-17.6-4.8-29.6 0.8-52.8 21.6-58.4 94.4-12 126.4l7.2 4.8z" fill="#E8D972" p-id="7435"></path><path d="M798.4 435.2c-2.4 0-4.8 0-7.2-0.8-12.8-4-19.2-17.6-15.2-30.4 4.8-14.4 11.2-28.8 20-43.2 26.4-42.4 30.4-71.2 28.8-81.6-6.4 2.4-18.4 9.6-28 18.4-9.6 8.8-24.8 8-33.6-1.6s-8-24.8 1.6-33.6c13.6-12 59.2-49.6 90.4-22.4 22.4 19.2 29.6 68-18.4 146.4-6.4 11.2-12 22.4-15.2 32.8-4 9.6-12.8 16-23.2 16zM622.4 341.6c-12.8 0-23.2-9.6-24-22.4-8-105.6-40-180-55.2-185.6-4.8 0-14.4 6.4-24 24-6.4 11.2-20.8 16-32.8 8.8-11.2-6.4-16-20.8-8.8-32.8 22.4-40 48-48 65.6-48 84 0 102.4 228 102.4 230.4 0.8 13.6-8.8 24.8-22.4 25.6h-0.8zM617.6 652c-13.6 0-24-11.2-24-24.8l4-174.4c0-13.6 11.2-24 24.8-23.2 13.6 0 24 11.2 23.2 24.8l-4 174.4c0 12.8-11.2 23.2-24 23.2zM574.4 1013.6h-60c-32.8 0-59.2-27.2-60-62.4l-8-153.6c-0.8-13.6 9.6-24.8 22.4-25.6 12.8-0.8 24.8 9.6 25.6 22.4l8 154.4c0 9.6 5.6 16 12 16h60c6.4 0 12-7.2 12-15.2l3.2-154.4c0-12.8 11.2-23.2 24-23.2h0.8c13.6 0 24 11.2 23.2 24.8l-3.2 154.4c-0.8 35.2-27.2 62.4-60 62.4zM468.8 652c-12.8 0-23.2-10.4-24-23.2-1.6-40-8-69.6-20-95.2-28-56.8-28-100.8-0.8-119.2 24.8-16.8 72-9.6 130.4 62.4 8 10.4 7.2 25.6-3.2 33.6s-25.6 7.2-33.6-3.2c-31.2-38.4-56-51.2-64.8-52.8-1.6 7.2 0.8 28 16 58.4 15.2 32 23.2 68 24.8 115.2 0 12-10.4 23.2-24.8 24 0.8 0 0 0 0 0zM461.6 389.6c-10.4 0-20.8-7.2-23.2-18.4-1.6-6.4-4-12.8-7.2-19.2-33.6-61.6-36-110.4-6.4-131.2 28.8-20 73.6-1.6 120 50.4 8.8 9.6 8 24.8-1.6 33.6s-24.8 8-33.6-1.6c-26.4-29.6-48-40.8-56-41.6-1.6 8 0.8 32 20.8 68 5.6 9.6 8.8 20 12 30.4 3.2 12.8-4.8 25.6-17.6 28.8-3.2 0.8-5.6 0.8-7.2 0.8z" fill="#444B54" p-id="7436"></path><path d="M621.6 477.6c-4.8 0-9.6-1.6-13.6-4-11.2-8-13.6-22.4-5.6-33.6 34.4-49.6 41.6-86.4 39.2-98.4-8 1.6-27.2 11.2-52 37.6-8.8 9.6-24 10.4-33.6 0.8-9.6-8.8-10.4-24-0.8-33.6 44.8-47.2 88-64 115.2-44.8 11.2 8 28 28 16 76-7.2 28-22.4 60-44 89.6-6.4 6.4-13.6 10.4-20.8 10.4z" fill="#444B54" p-id="7437"></path><path d="M712 740H304c-13.6 0-24-10.4-24-24s10.4-24 24-24h408c13.6 0 24 10.4 24 24s-11.2 24-24 24z" fill="#444B54" p-id="7438"></path></svg>