<?xml version="1.0" standalone="no"?><!DOCTYPE svg PUBLIC "-//W3C//DTD SVG 1.1//EN" "http://www.w3.org/Graphics/SVG/1.1/DTD/svg11.dtd"><svg t="1608826161027" class="icon" viewBox="0 0 1024 1024" version="1.1" xmlns="http://www.w3.org/2000/svg" p-id="8738" xmlns:xlink="http://www.w3.org/1999/xlink" width="64" height="64"><defs><style type="text/css"></style></defs><path d="M5.1 831.5h253.5c2.8 0 5.1-2.3 5.1-5.1s-2.3-5.1-5.1-5.1H5.1c-2.8 0-5.1 2.3-5.1 5.1s2.3 5.1 5.1 5.1z m314.3 0h55.8c2.8 0 5.1-2.3 5.1-5.1s-2.3-5.1-5.1-5.1h-55.8c-2.8 0-5.1 2.3-5.1 5.1s2.3 5.1 5.1 5.1z m106.4 0h253.5c2.8 0 5.1-2.3 5.1-5.1s-2.3-5.1-5.1-5.1H425.8c-2.8 0-5.1 2.3-5.1 5.1s2.3 5.1 5.1 5.1z m314.3 0h55.8c2.8 0 5.1-2.3 5.1-5.1s-2.3-5.1-5.1-5.1h-55.8c-2.8 0-5.1 2.3-5.1 5.1s2.3 5.1 5.1 5.1z m106.5 0H1019c2.8 0 5.1-2.3 5.1-5.1s-2.3-5.1-5.1-5.1H846.6c-2.8 0-5.1 2.3-5.1 5.1s2.3 5.1 5.1 5.1z" fill="#340606" p-id="8739"></path><path d="M124.2 912.6a387.8 43.1 0 1 0 775.6 0 387.8 43.1 0 1 0-775.6 0Z" fill="#CFCFD5" p-id="8740"></path><path d="M332 659.2a250.9 202.8 90 1 0 405.6 0 250.9 202.8 90 1 0-405.6 0Z" fill="#FFD14A" p-id="8741"></path><path d="M509.5 908.1c8.3 1.3 16.8 1.9 25.3 1.9 112 0 202.8-112.3 202.8-250.9s-90.8-250.9-202.8-250.9c-8.6 0-17 0.7-25.3 1.9 100 15.4 177.4 121 177.4 249s-77.4 233.6-177.4 249z" fill="#E8B218" p-id="8742"></path><path d="M450.7 440.7c-41.5 6.2-73.2-1.5-95-23.3-21.8-21.8-29.5-53.4-23.3-95 41.5-6.2 73.2 1.5 95 23.3 21.8 21.8 29.5 53.4 23.3 95z m170.6 0c-6.2-41.5 1.5-73.2 23.3-95 21.8-21.8 53.4-29.5 95-23.3 6.2 41.5-1.5 73.2-23.3 95-21.7 21.8-53.4 29.5-95 23.3z m-86.5-32.5c-33.8-25-50.7-52.8-50.7-83.6s16.9-58.7 50.7-83.6c33.8 25 50.7 52.8 50.7 83.6s-16.9 58.7-50.7 83.6z" fill="#1AAD19" p-id="8743"></path><path d="M400.2 522.2c-13.4 19.7-23.8 42.1-30.7 66.4-1.1 4 1.2 8.2 5.2 9.4 4 1.1 8.2-1.2 9.4-5.2 6.4-22.7 16.2-43.7 28.6-62 2.4-3.5 1.5-8.2-2-10.6s-8.1-1.5-10.5 2z" fill="#E8B218" p-id="8744"></path><path d="M484.1 915.2c-2.8 0-5.1-2.3-5.1-5.1s2.3-5.1 5.1-5.1c78.7 0 149.2-57.9 180.8-146.2 0.9-2.6 3.8-4 6.5-3.1 2.6 0.9 4 3.8 3.1 6.5-33 92.1-107 153-190.4 153z m192-157.8c-0.9 2.7-3.8 4.1-6.4 3.2s-4.1-3.8-3.2-6.4c0.5-1.6 1-3.1 1.6-4.7 0.8-2.7 3.7-4.1 6.4-3.3 2.7 0.8 4.1 3.7 3.3 6.4-0.6 1.5-1.1 3.2-1.7 4.8z m12.9-55c-0.4 2.8-2.9 4.7-5.7 4.3-2.8-0.4-4.7-2.9-4.3-5.7 1.9-13.7 2.8-27.6 2.9-41.7 0-74.3-26.6-143-71.6-189.4-1.9-2-1.9-5.2 0.1-7.2 2-1.9 5.2-1.9 7.2 0.1 46.9 48.4 74.4 119.6 74.4 196.5-0.1 14.5-1 28.9-3 43.1z m-75.2-243.3c2 2 2 5.2 0.1 7.2s-5.2 2-7.2 0.1c-1.2-1.2-2.4-2.3-3.6-3.4-2-1.9-2.1-5.1-0.2-7.2 1.9-2 5.1-2.1 7.2-0.2 1.3 1.1 2.5 2.3 3.7 3.5z m-46-34.4c2.5 1.3 3.4 4.4 2 6.9-1.3 2.5-4.4 3.4-6.9 2-24.7-13.4-51.4-20.3-78.8-20.3-53.5 0-103.8 26.6-140.7 73.2-1.7 2.2-4.9 2.6-7.1 0.8-2.2-1.7-2.6-4.9-0.8-7.1 38.8-48.9 91.9-77.1 148.7-77.1 29.1 0.1 57.5 7.5 83.6 21.6z m-235.5 59.6c1.7-2.2 4.9-2.7 7.1-1 2.2 1.7 2.7 4.9 1 7.1-1 1.3-2 2.6-3 4-1.6 2.3-4.8 2.8-7.1 1.1s-2.8-4.8-1.1-7.1c1-1.3 2-2.7 3.1-4.1zM303 533.4c1.2-2.5 4.2-3.7 6.7-2.5 2.5 1.2 3.7 4.2 2.5 6.7-16.8 36.7-25.8 78.3-25.8 121.5 0 42.8 8.8 84 25.3 120.4 1.2 2.6 0 5.6-2.5 6.7-2.6 1.2-5.6 0-6.7-2.5-17.1-37.8-26.2-80.4-26.2-124.6 0-44.6 9.3-87.6 26.7-125.7z m1.7 255.1c-1.2-2.5-0.1-5.6 2.4-6.8 2.5-1.2 5.6-0.1 6.8 2.4 0.7 1.5 1.4 3 2.2 4.5 1.3 2.5 0.2 5.5-2.3 6.8s-5.5 0.2-6.8-2.3c-0.8-1.5-1.6-3.1-2.3-4.6z m29.7 48.3c-1.7-2.2-1.3-5.4 0.9-7.1 2.2-1.7 5.4-1.3 7.1 0.9 37 47.4 87.7 74.5 141.7 74.5 2.8 0 5.1 2.3 5.1 5.1s-2.3 5.1-5.1 5.1c-57.3-0.1-110.8-28.8-149.7-78.5z" fill="#392C07" p-id="8745"></path><path d="M423.1 393.1c-2.3 0-4.4-1.6-4.9-3.9-3.6-15.3-10.7-28.3-21-38.7-7.2-7.1-15.6-12.8-25-16.7-2.6-1.1-3.8-4-2.7-6.6 1.1-2.6 4-3.8 6.6-2.7 10.7 4.4 20.2 10.8 28.3 18.9 11.7 11.7 19.7 26.4 23.8 43.5 0.6 2.7-1.1 5.5-3.8 6.1-0.5 0-0.9 0.1-1.3 0.1zM549.7 366.8c-0.9 0-1.8-0.2-2.7-0.8-2.4-1.5-3.1-4.6-1.6-7 8.3-13.3 12.5-27.5 12.5-42.2 0-10.1-2-20-5.9-29.5-1.1-2.6 0.2-5.6 2.7-6.6 2.6-1.1 5.5 0.2 6.6 2.7 4.4 10.7 6.6 21.9 6.6 33.3 0 16.6-4.7 32.6-14 47.6-0.9 1.6-2.5 2.5-4.2 2.5zM675.6 430.3c-1.8 0-3.6-1-4.5-2.7-1.3-2.5-0.4-5.5 2.1-6.9 13.8-7.4 24.6-17.6 31.9-30.3 5.1-8.7 8.3-18.3 9.6-28.5 0.4-2.8 2.9-4.7 5.7-4.4 2.8 0.4 4.7 2.9 4.4 5.7-1.5 11.5-5.2 22.3-10.9 32.2-8.3 14.4-20.4 25.9-35.9 34.2-0.8 0.5-1.6 0.7-2.4 0.7z" fill="#FFFFFF" p-id="8746"></path><path d="M399.2 430.6c2.8-0.4 5.4 1.5 5.8 4.3s-1.5 5.4-4.3 5.8c-19.4 2.9-36.8 2.9-52.2-0.2-2.7-0.5-4.5-3.2-4-6 0.5-2.7 3.2-4.5 6-4 14.2 2.8 30.4 2.9 48.7 0.1z m-53.5-1.2c2.7 0.7 4.4 3.4 3.7 6.2-0.7 2.7-3.4 4.4-6.2 3.7-1.7-0.4-3.5-0.9-5.1-1.4-2.7-0.8-4.2-3.7-3.4-6.3 0.8-2.7 3.7-4.2 6.3-3.4 1.6 0.4 3.2 0.8 4.7 1.2z m-43.4-27.8c1.7 2.2 1.3 5.4-0.9 7.1-2.2 1.7-5.4 1.3-7.1-0.9-10.6-13.6-16.9-30.1-19-49.4-0.3-2.8 1.7-5.3 4.5-5.6 2.8-0.3 5.3 1.7 5.6 4.5 1.9 17.6 7.5 32.3 16.9 44.3zM285 352.3c0.2 2.8-1.9 5.2-4.7 5.4-2.8 0.2-5.2-1.9-5.4-4.7-0.1-1.7-0.2-3.5-0.2-5.3-0.1-2.8 2.1-5.1 4.9-5.2 2.8-0.1 5.1 2.1 5.2 4.9 0 1.7 0.1 3.3 0.2 4.9z m17-31.9c-2.8 0.1-5.2-2.1-5.3-4.9s2.1-5.2 4.9-5.3c19.7-0.8 37.1 2 51.9 8.5 2.6 1.1 3.7 4.1 2.6 6.7-1.1 2.6-4.1 3.7-6.7 2.6-13.3-5.7-29.1-8.3-47.4-7.6z m52 9.9c-2.5-1.3-3.5-4.3-2.2-6.8 1.3-2.5 4.3-3.5 6.8-2.2 1.6 0.8 3.2 1.7 4.7 2.6 2.4 1.4 3.2 4.5 1.8 6.9s-4.5 3.2-6.9 1.8c-1.4-0.9-2.8-1.6-4.2-2.3z m35.1 37.4c-1.1-2.6 0-5.6 2.6-6.7 2.6-1.1 5.6 0 6.7 2.6 6.5 14.9 9.4 32.2 8.6 51.9-0.1 2.8-2.5 5-5.3 4.9s-5-2.5-4.9-5.3c0.8-18.2-1.8-34-7.7-47.4z m7.5 52.8c0.2-2.8 2.6-4.9 5.4-4.7 2.8 0.2 4.9 2.6 4.7 5.4-0.1 1.7-0.3 3.4-0.4 5.2-0.3 2.8-2.8 4.8-5.5 4.5-2.8-0.3-4.8-2.8-4.5-5.5 0-1.7 0.2-3.3 0.3-4.9z m179.1 14.4c0.4 2.8-1.5 5.4-4.3 5.8-2.8 0.4-5.4-1.5-5.8-4.3-2.9-19.4-2.9-36.8 0.2-52.2 0.5-2.7 3.2-4.5 6-4 2.7 0.5 4.5 3.2 4 6-2.8 14.1-2.9 30.4-0.1 48.7z m1.2-53.5c-0.7 2.7-3.4 4.4-6.2 3.7-2.7-0.7-4.4-3.4-3.7-6.2 0.4-1.7 0.9-3.5 1.4-5.1 0.8-2.7 3.7-4.2 6.3-3.4 2.7 0.8 4.2 3.7 3.4 6.3-0.4 1.6-0.9 3.1-1.2 4.7z m27.7-43.5c-2.2 1.7-5.4 1.3-7.1-0.9s-1.3-5.4 0.9-7.1c13.6-10.6 30.1-16.9 49.4-19 2.8-0.3 5.3 1.7 5.6 4.5s-1.7 5.3-4.5 5.6c-17.5 1.9-32.2 7.6-44.3 16.9z m49.4-17.3c-2.8 0.2-5.2-1.9-5.4-4.7s1.9-5.2 4.7-5.4c1.7-0.1 3.5-0.2 5.3-0.2 2.8-0.1 5.1 2.1 5.2 4.9s-2.1 5.1-4.9 5.2c-1.7 0-3.3 0.1-4.9 0.2z m31.8 17.1c-0.1-2.8 2.1-5.2 4.9-5.3 2.8-0.1 5.2 2.1 5.3 4.9 0.8 19.7-2 37.1-8.5 51.9-1.1 2.6-4.1 3.7-6.7 2.6s-3.7-4.1-2.6-6.7c5.8-13.3 8.4-29.2 7.6-47.4z m-9.8 51.9c1.3-2.5 4.3-3.5 6.8-2.2 2.5 1.3 3.5 4.3 2.2 6.8-0.8 1.6-1.7 3.2-2.6 4.7-1.4 2.4-4.5 3.2-6.9 1.8-2.4-1.4-3.2-4.5-1.8-6.9 0.8-1.4 1.6-2.8 2.3-4.2z m-37.4 35.2c2.6-1.1 5.6 0 6.7 2.6s0 5.6-2.6 6.7c-14.9 6.5-32.2 9.4-51.9 8.6-2.8-0.1-5-2.5-4.9-5.3s2.5-5 5.3-4.9c18.2 0.7 34-1.9 47.4-7.7z m-52.8 7.4c2.8 0.2 4.9 2.6 4.7 5.4-0.2 2.8-2.6 4.9-5.4 4.7-1.7-0.1-3.4-0.3-5.2-0.4-2.8-0.3-4.8-2.8-4.5-5.5s2.8-4.8 5.5-4.5c1.7 0.1 3.3 0.2 4.9 0.3z m-98.7-33.1c2.3 1.7 2.7 4.8 1.1 7.1s-4.8 2.7-7.1 1.1c-15.8-11.7-28.1-24-36.8-37.1-1.6-2.3-0.9-5.5 1.4-7 2.3-1.6 5.5-0.9 7 1.4 8.1 11.9 19.5 23.5 34.4 34.5z m-37-38.7c1.4 2.4 0.7 5.5-1.7 7-2.4 1.4-5.5 0.7-7-1.7-0.9-1.5-1.8-3.1-2.6-4.6-1.3-2.5-0.4-5.5 2.1-6.9s5.5-0.4 6.9 2.1c0.7 1.3 1.5 2.7 2.3 4.1z m-11-50.3c-0.3 2.8-2.9 4.8-5.7 4.4-2.8-0.3-4.8-2.9-4.4-5.7 2.1-17.1 9.3-33.2 21.5-48.4 1.8-2.2 4.9-2.5 7.1-0.8s2.5 4.9 0.8 7.1c-11 13.8-17.5 28.2-19.3 43.4z m22.6-47.2c-1.8 2.1-5 2.3-7.2 0.5-2.1-1.8-2.3-5-0.5-7.2 1.1-1.3 2.3-2.6 3.5-3.9 1.9-2 5.1-2.1 7.2-0.2 2 1.9 2.1 5.1 0.2 7.2-1.1 1.2-2.2 2.4-3.2 3.6z m34.6-10.5c-2.1-1.9-2.2-5.1-0.3-7.2 1.9-2.1 5.1-2.2 7.2-0.3 14.5 13.4 24.8 27.7 30.7 42.8 1 2.6-0.3 5.5-2.9 6.6s-5.5-0.3-6.6-2.9c-5.3-13.6-14.7-26.6-28.1-39z m29.8 43.7c-0.9-2.7 0.6-5.5 3.3-6.4 2.7-0.9 5.5 0.6 6.4 3.3 0.6 1.7 1 3.4 1.5 5.2 0.7 2.7-0.9 5.5-3.7 6.2-2.7 0.7-5.5-0.9-6.2-3.7-0.4-1.6-0.8-3.1-1.3-4.6z m-1.6 51.4c1-2.6 4-3.9 6.6-2.9 2.6 1 3.9 4 2.9 6.6-5.9 15.1-16.1 29.4-30.6 42.8-2.1 1.9-5.3 1.8-7.2-0.3-1.9-2.1-1.8-5.3 0.3-7.2 13.3-12.4 22.7-25.4 28-39zM492.4 390c2.1-1.8 5.3-1.6 7.2 0.5 1.8 2.1 1.6 5.3-0.5 7.2-1.3 1.1-2.6 2.2-4 3.4-2.2 1.8-5.4 1.5-7.1-0.7-1.8-2.2-1.5-5.4 0.7-7.1 1.3-1.2 2.5-2.2 3.7-3.3z" fill="#392C07" p-id="8747"></path><path d="M519.6 565.4m-15.2 0a15.2 15.2 0 1 0 30.4 0 15.2 15.2 0 1 0-30.4 0Z" fill="#392C07" p-id="8748"></path><path d="M610.8 565.4m-15.2 0a15.2 15.2 0 1 0 30.4 0 15.2 15.2 0 1 0-30.4 0Z" fill="#392C07" p-id="8749"></path><path d="M544.9 636.3c0 14 11.3 25.3 25.3 25.3s25.3-11.3 25.3-25.3c0-2.8-2.3-5.1-5.1-5.1s-5.1 2.3-5.1 5.1c0 8.4-6.8 15.2-15.2 15.2-8.4 0-15.2-6.8-15.2-15.2 0-2.8-2.3-5.1-5.1-5.1-2.6 0.1-4.9 2.3-4.9 5.1z" fill="#392C07" p-id="8750"></path><path d="M389.1 766.5l-6-10.3c-1.4-2.4-4.5-3.3-6.9-1.9-2.4 1.4-3.3 4.5-1.9 6.9l6 10.3-13.5 7.8c-2.4 1.4-3.3 4.5-1.9 6.9 1.4 2.4 4.5 3.3 6.9 1.9l13.5-7.8 7.8 13.5c1.4 2.4 4.5 3.3 6.9 1.9s3.3-4.5 1.9-6.9l-7.8-13.5 10.4-6c2.4-1.4 3.3-4.5 1.9-6.9-1.4-2.4-4.5-3.3-6.9-1.9l-10.4 6zM676.2 725.3l-6-10.3c-1.4-2.4-4.5-3.3-6.9-1.9-2.4 1.4-3.3 4.5-1.9 6.9l6 10.3-13.5 7.8c-2.4 1.4-3.3 4.5-1.9 6.9s4.5 3.3 6.9 1.9l13.5-7.8 7.8 13.5c1.4 2.4 4.5 3.3 6.9 1.9s3.3-4.5 1.9-6.9l-7.8-13.5 10.4-6c2.4-1.4 3.3-4.5 1.9-6.9-1.4-2.4-4.5-3.3-6.9-1.9l-10.4 6zM879 253.8l-6-10.3c-1.4-2.4-4.5-3.3-6.9-1.9-2.4 1.4-3.3 4.5-1.9 6.9l6 10.3-13.5 7.8c-2.4 1.4-3.3 4.5-1.9 6.9 1.4 2.4 4.5 3.3 6.9 1.9l13.5-7.8 7.8 13.5c1.4 2.4 4.5 3.3 6.9 1.9 2.4-1.4 3.3-4.5 1.9-6.9l-7.8-13.5 10.4-6c2.4-1.4 3.3-4.5 1.9-6.9-1.4-2.4-4.5-3.3-6.9-1.9l-10.4 6zM899.2 568.1l-6-10.3c-1.4-2.4-4.5-3.3-6.9-1.9-2.4 1.4-3.3 4.5-1.9 6.9l6 10.3L877 581c-2.4 1.4-3.3 4.5-1.9 6.9 1.4 2.4 4.5 3.3 6.9 1.9l13.5-7.8 7.8 13.5c1.4 2.4 4.5 3.3 6.9 1.9 2.4-1.4 3.3-4.5 1.9-6.9l-7.8-13.5 10.4-6c2.4-1.4 3.3-4.5 1.9-6.9-1.4-2.4-4.5-3.3-6.9-1.9l-10.5 5.9zM174.3 213.3l-6-10.3c-1.4-2.4-4.5-3.3-6.9-1.9-2.4 1.4-3.3 4.5-1.9 6.9l6 10.3-13.5 7.8c-2.4 1.4-3.3 4.5-1.9 6.9 1.4 2.4 4.5 3.3 6.9 1.9l13.5-7.8 7.8 13.5c1.4 2.4 4.5 3.3 6.9 1.9 2.4-1.4 3.3-4.5 1.9-6.9l-7.8-13.5 10.4-6c2.4-1.4 3.3-4.5 1.9-6.9-1.4-2.4-4.5-3.3-6.9-1.9l-10.4 6zM133.8 705l-6-10.3c-1.4-2.4-4.5-3.3-6.9-1.9-2.4 1.4-3.3 4.5-1.9 6.9l6 10.3-13.5 7.8c-2.4 1.4-3.3 4.5-1.9 6.9s4.5 3.3 6.9 1.9l13.5-7.8 7.8 13.5c1.4 2.4 4.5 3.3 6.9 1.9 2.4-1.4 3.3-4.5 1.9-6.9l-7.8-13.5 10.4-6c2.4-1.4 3.3-4.5 1.9-6.9-1.4-2.4-4.5-3.3-6.9-1.9l-10.4 6z" fill="#392C07" p-id="8751"></path></svg>