<?xml version="1.0" standalone="no"?><!DOCTYPE svg PUBLIC "-//W3C//DTD SVG 1.1//EN" "http://www.w3.org/Graphics/SVG/1.1/DTD/svg11.dtd"><svg t="1608874720162" class="icon" viewBox="0 0 1024 1024" version="1.1" xmlns="http://www.w3.org/2000/svg" p-id="1894" width="128" height="128" xmlns:xlink="http://www.w3.org/1999/xlink"><defs><style type="text/css"></style></defs><path d="M510.927 907.154a7.602 7.602 0 0 1-7.597-7.46l-1.122-60.422a7.6 7.6 0 0 1 7.458-7.741c4.173-0.091 7.662 3.262 7.741 7.458l1.122 60.422a7.6 7.6 0 0 1-7.458 7.741c-0.048 0.002-0.097 0.002-0.144 0.002zM436.64 908.033a7.6 7.6 0 0 1-7.601-7.586c-0.102-50.461 51.003-68.584 53.177-69.331a7.6 7.6 0 0 1 9.657 4.722 7.6 7.6 0 0 1-4.711 9.653c-1.831 0.64-43.002 15.478-42.922 54.926a7.602 7.602 0 0 1-7.585 7.616h-0.015zM586.538 908.033h-0.015a7.602 7.602 0 0 1-7.586-7.616c0.08-39.487-41.172-54.316-42.928-54.928-3.958-1.379-6.062-5.705-4.691-9.666 1.37-3.959 5.675-6.07 9.642-4.708 2.176 0.747 53.281 18.87 53.179 69.331a7.602 7.602 0 0 1-7.601 7.587zM294.32 818.092c-2.786 0-5.524-0.395-7.875-0.732-3.583-0.517-8.513-1.293-14.653-2.31-9.74-1.614-19.559-3.342-20.777-3.556-41.517-6.663-75.021-29.552-96.897-66.2-15.721-26.335-20.053-50.924-20.466-53.445-13.988-81.128 4.221-148.594 55.668-206.241 43.508-48.75 103.62-82.302 156.656-111.904 36.244-20.23 70.478-39.337 91.676-59.419 31.996-30.312 45.251-69.664 39.394-116.963-4.544-36.701-19.36-64.667-19.51-64.945-3.962-7.39-1.197-16.605 6.186-20.58 7.386-3.973 16.585-1.232 20.572 6.144 0.707 1.306 17.365 32.484 22.79 74.578 7.356 57.058-9.423 106.797-48.522 143.838-23.964 22.702-59.813 42.711-97.768 63.895-105.443 58.854-224.954 125.559-197.168 286.495 0.015 0.082 0.028 0.165 0.041 0.246 0.534 3.302 14.159 82.027 92.265 94.496 0.083 0.013 0.166 0.027 0.248 0.042 14.795 2.614 32.38 5.529 37.883 6.183a15.13 15.13 0 0 1 9.719 2.599c5.919 4.036 8.278 11.744 5.576 18.38-3.117 7.657-9.183 9.399-15.038 9.399zM750.644 818.076c-6.401 0-13.83-0.422-22.444-1.44-8.339-0.986-14.298-8.544-13.312-16.881 0.987-8.339 8.559-14.296 16.881-13.312 26.164 3.094 35.906-0.588 37.199-1.151a15.306 15.306 0 0 1 2.721-1.407c88.39-34.944 95.29-95.424 95.35-96.031 0.018-0.189 0.04-0.377 0.065-0.566 23.562-173.538-93.313-234.871-196.428-288.983-38.087-19.988-74.062-38.866-98.424-61.947-39.099-37.042-55.878-86.78-48.523-143.838 5.426-42.094 22.083-73.272 22.79-74.578 3.995-7.386 13.222-10.134 20.603-6.143 7.386 3.994 10.135 13.218 6.143 20.603-0.137 0.255-14.953 28.22-19.497 64.921-5.857 47.299 7.398 86.651 39.395 116.964 21.307 20.186 55.471 38.115 91.643 57.096 52.165 27.376 111.291 58.403 154.485 106.817 50.71 56.835 69.672 126.509 57.967 213.002-0.773 6.682-11.511 79.68-113.047 120.424-4.887 2.829-14.808 6.45-33.567 6.45z" fill="#070001" p-id="1895"></path><path d="M366.579 826.146l-0.247-0.015c-54.497-3.238-93.434-29.286-112.603-75.329-9.89-23.756-14.323-51.728-13.176-83.141 0.032-0.87 0.058-1.508 0.058-1.891-0.816-81.389 41.396-138.091 43.193-140.465a7.6 7.6 0 0 1 10.648-1.472 7.6 7.6 0 0 1 1.472 10.648c-0.655 0.876-40.871 55.363-40.111 131.213 0 0.57-0.027 1.397-0.068 2.521-1.491 40.803 6.37 136.331 111.216 142.724 2.988-0.05 34.843-0.854 50.928-11.779a7.6 7.6 0 0 1 10.558 2.019 7.601 7.601 0 0 1-2.018 10.558c-20.642 14.017-58.022 14.397-59.603 14.406l-0.247 0.003zM645.898 826.276c-10.247 0-33.446-1.635-46.647-15.432a7.602 7.602 0 0 1 10.986-10.508c9.651 10.086 30.771 11.133 38.957 10.668C763.18 781.675 768.96 684.906 768.96 665.773c0.766-76.574-36.497-130.997-36.874-131.537a7.602 7.602 0 0 1 12.477-8.686c1.651 2.371 40.413 58.998 39.599 140.296 0 21.072-6.358 128.172-131.898 160.064l-0.64 0.163-0.658 0.049c-0.311 0.024-2.173 0.154-5.068 0.154z" fill="#070001" p-id="1896"></path><path d="M496.754 845.908a7.57 7.57 0 0 1-2.6-0.46c-38.137-13.884-66.42-39.064-84.062-74.843-14.184-28.767-21.506-64.499-21.762-106.202-0.203-32.987 4.085-87.323 25.657-158.856 0.291-0.966 0.531-1.752 0.707-2.349 0.08-0.889 0.318-1.778 0.73-2.628 2.094-4.331 6.496-5.308 9.763-4.035 1.087 0.423 6.401 2.908 4.293 10.253-0.206 0.717-0.524 1.774-0.938 3.148-21.026 69.721-25.206 122.432-25.011 154.375 0.538 87.763 32.777 143.901 95.822 166.853a7.6 7.6 0 0 1-2.599 14.744zM524.984 845.908a7.601 7.601 0 0 1-7.015-4.669 7.599 7.599 0 0 1 4.078-9.945c70.587-29.528 103.552-92.575 97.98-187.39-4.243-72.205-30.368-136.494-30.631-137.134a7.601 7.601 0 0 1 14.059-5.784c1.11 2.7 27.267 66.984 31.728 141.671 6.014 100.71-31.08 170.79-107.269 202.661-0.958 0.4-1.951 0.59-2.93 0.59z" fill="#070001" p-id="1897"></path><path d="M510.441 850.38c-3.184 0-6.366-0.134-9.552-0.404-34.392-2.913-59.778-21.087-73.133-33.194-19.68 12.539-47.525 16.623-83.059 12.141-30.385-3.832-55.49-12.693-56.544-13.067-7.909-2.818-12.038-11.513-9.221-19.421 2.817-7.911 11.511-12.037 19.421-9.222 24.469 8.673 93.654 25.299 119.755-1.486a15.186 15.186 0 0 1 11.61-4.574 15.195 15.195 0 0 1 11.122 5.656c0.206 0.251 24.813 29.827 62.95 32.9 27.291 2.193 55.615-9.495 84.162-34.757 6.109-5.404 15.392-5.025 21.042 0.858 1.661 1.682 43.154 42.454 105.687-1.875 6.85-4.855 16.338-3.239 21.194 3.61 4.856 6.85 3.239 16.338-3.61 21.194-43.568 30.885-80.537 29.013-103.88 22.003a105.712 105.712 0 0 1-30.248-14.675c-28.85 22.803-58.266 34.313-87.696 34.313z" fill="#070001" p-id="1898"></path></svg>