<?xml version="1.0" standalone="no"?><!DOCTYPE svg PUBLIC "-//W3C//DTD SVG 1.1//EN" "http://www.w3.org/Graphics/SVG/1.1/DTD/svg11.dtd"><svg t="1608825111275" class="icon" viewBox="0 0 1024 1024" version="1.1" xmlns="http://www.w3.org/2000/svg" p-id="4681" xmlns:xlink="http://www.w3.org/1999/xlink" width="64" height="64"><defs><style type="text/css"></style></defs><path d="M758.8 489.9c11.6-6.7 23.6-12 36-15.1 0.4-0.1 0.6-0.3 1.1-0.5 13.2-0.6 25.9 2.6 34.4 5.6-7.2 10-20.3 24.9-38.2 30.6-17.9 5.7-37.3 1-48.9-3.1 3.5-5.2 8.9-11.8 15.6-17.5zM659.5 253.1c13.9-7.5 40.6-18.9 67.5-14.1 26.7 4.8 47.9 24.8 58.3 36.6-13.9 7.5-40.7 18.8-67.4 14-26.8-4.6-48-24.7-58.4-36.5zM718 492.1c-4.9-11.2-11-30.1-6.6-48.5s18.3-32.6 27.7-40.5c4.9 11.3 11 30.1 6.6 48.6-4.4 18.3-18.3 32.5-27.7 40.4zM655 602.7c9.8-7.2 26.6-17.1 45.4-17.1 0.1 0 0.5 0.1 0.4 0 18.8 0.1 35.8 10.5 45.6 18.1-9.8 7.2-26.7 17.1-45.4 17.1h-0.5c-18.8-0.2-35.8-10.6-45.5-18.1zM644 227.2c-1.1-15.7-0.5-44.8 14.8-67.2 15.3-22.5 42.1-33.5 57.3-38.2 1.1 15.7 0.5 44.8-14.7 67.2-15.4 22.5-42.3 33.5-57.4 38.2zM646.2 732.8c-18.3-4.1-32.8-17.7-40.8-27.1 11.2-5 30-11.3 48.5-7.3 18.4 4.1 32.8 17.7 40.8 27.1-11.2 5.2-30 11.5-48.5 7.3zM609.7 539.1c-1.5-18.7 7.3-36.5 13.9-47 8.1 9.3 19.7 25.3 21.2 44.2 1.6 18.7-7.3 36.5-13.8 47-8.3-9.2-19.8-25.3-21.3-44.2zM611.8 329.3c-8.9 13-27.3 35.5-53.3 43.6-25.9 8.1-53.8 0.2-68.6-5.4 1.2-1.7 2.6-3.6 4.1-5.7 10.6-10.5 21.3-20.5 32-30 5.2-3.3 11-6.1 17.1-8 26-8.1 54-0.2 68.7 5.5zM547.6 658.5c-5.3-18.1-0.5-37.3 3.7-48.8 9.9 7.4 24.6 20.7 30 38.8 5.3 17.9 0.4 37.2-3.8 48.8-9.9-7.4-24.5-20.9-29.9-38.8z" fill="#FFBE92" p-id="4682"></path><path d="M581.4 648.4c-5.4-18.1-20.1-31.4-30-38.8-4.3 11.5-9.1 30.8-3.7 48.8 5.3 17.9 20 31.4 29.9 38.8 4.2-11.6 9.1-30.8 3.8-48.8z m161.7-141.1c11.6 4.1 31 8.8 48.9 3.1 17.9-5.7 31.1-20.5 38.2-30.6-8.5-3-21.2-6.2-34.4-5.6-0.4 0.2-0.6 0.4-1.1 0.5-12.4 3.1-24.4 8.3-36 15.1-6.6 5.8-12 12.4-15.6 17.5z m-31.7-63.7c-4.4 18.4 1.7 37.3 6.6 48.5 9.4-7.9 23.3-22.1 27.7-40.4 4.4-18.5-1.7-37.3-6.6-48.6-9.4 7.9-23.3 22.1-27.7 40.5zM655 602.7c9.7 7.5 26.7 17.9 45.5 18.1h0.5c18.7 0 35.6-9.9 45.4-17.1-9.8-7.6-26.8-17.9-45.6-18.1 0.1 0.1-0.3 0-0.4 0-18.8 0-35.6 9.9-45.4 17.1z m-49.6 103c8 9.4 22.5 23.1 40.8 27.1 18.5 4.2 37.3-2.1 48.5-7.3-8-9.4-22.4-23.1-40.8-27.1-18.5-4.1-37.3 2.3-48.5 7.3z m4.3-166.6c1.5 18.9 13 34.9 21.3 44.2 6.5-10.5 15.4-28.3 13.8-47-1.5-18.9-13-34.9-21.2-44.2-6.7 10.5-15.4 28.3-13.9 47z m15.7 68.8c-1.4-1.2-33.9-28.7-37-67-3.1-38.4 24.5-70.8 25.6-72.2 3.8-4.4 10.5-4.9 15-1.2 1.4 1.2 34 28.7 37.1 67 0.3 4.5 0.2 8.9-0.1 13 11.3-14.7 23.2-28.2 35.6-40.2-6.2-12.3-17.7-40.2-10.9-68.7 8.8-37.4 45.1-59.8 46.7-60.8 5-3 11.4-1.5 14.5 3.5 1 1.5 23.4 37.8 14.5 75.2-0.2 1.2-0.6 2.4-1 3.6 3-1.5 6.2-2.8 9.6-3.8 36.5-11.5 74.5 8.2 76 9.1 5.2 2.7 7.3 9.1 4.6 14.2-0.9 1.6-20.6 39.5-57.2 51.1-8.3 2.6-16.6 3.5-24.5 3.5-27.3 0-50.4-12-51.6-12.6-1.1-0.5-1.8-1.3-2.6-2.1-14.7 13.9-28.7 30.1-42 48 7.1-2 14.6-3.3 22.5-3.3h0.6c38.4 0.3 68.3 30.8 69.5 32 4.1 4.2 4 10.9-0.1 15.1-1.3 1.2-31.4 30.8-69.5 30.8h-0.6c-24-0.2-44.8-12.2-57.2-21.5-11.4 19.4-22.1 39.7-31.9 60.1 9-2.8 19.4-4.9 30.6-4.9 5.4 0 11.1 0.4 16.8 1.7 37.5 8.3 60.4 44.3 61.3 45.8 3.1 4.9 1.7 11.4-3.2 14.6-1.3 0.9-27.3 17.4-58 17.4-5.6 0-11.2-0.5-17-1.8-22.2-4.9-39.3-19.6-49.8-31-16.6 38.1-30.4 75.1-41.2 106.3-1.5 4.4-5.7 7.2-10.1 7.2-1.1 0-2.2-0.2-3.4-0.6-5.6-1.9-8.5-8-6.6-13.6 11.5-33.4 24.9-68.7 39.8-103.6-11.6-7.8-34.9-26.1-43.2-53.7-11-36.8 9.3-74.4 10.3-75.9 2.8-5.1 9.2-7.1 14.3-4.4 1.6 0.9 39.1 21.2 50.1 57.9 0.6 2 1.1 4 1.5 6 7.1-13.8 14.5-27.2 22.2-40.3z" fill="#4F5953" p-id="4683"></path><path d="M462.2 363.3c-7.8-13.8-19.8-40.3-15.5-67.1 4.3-26.9 23.7-48.4 35.4-59.1 7.8 13.7 19.8 40.2 15.5 67.1-4.3 26.8-23.7 48.4-35.4 59.1zM382 501.8c11.6-10.6 34.8-28.1 62.1-29.9 27.2-1.9 52.5 12.4 65.5 21.4-11.6 10.6-34.7 28.1-62 29.9-27.1 2-52.5-12.4-65.6-21.4zM288 629.2c13.6-7.9 40-20.3 66.9-16.5 26.9 3.8 48.7 23 59.6 34.4-13.7 8-40 20.3-66.9 16.6-26.9-3.9-48.8-23.1-59.6-34.5zM335 357.6c11.6 10.7 31.2 32 35.5 59.1 4.3 26.9-7.6 53.4-15.4 67.2-11.6-10.7-31.2-32.3-35.5-59.1-4.2-26.9 7.7-53.4 15.4-67.2zM258.6 625.4c-13.6-8-37.1-24.9-46.9-50.4-9.7-25.4-3.6-53.8 1.2-68.9 13.6 8.1 37.1 25.1 46.9 50.4 9.7 25.5 3.5 53.9-1.2 68.9z" fill="#FFBE92" p-id="4684"></path><path d="M446.8 296.2c-4.3 26.8 7.7 53.3 15.5 67.1 11.6-10.7 31.1-32.3 35.4-59.1 4.3-26.9-7.7-53.4-15.5-67.1-11.7 10.7-31.2 32.2-35.4 59.1z m-2.7 175.7c-27.2 1.8-50.4 19.3-62.1 29.9 13 9 38.5 23.4 65.6 21.4 27.2-1.8 50.3-19.3 62-29.9-13.1-9-38.3-23.3-65.5-21.4z m-73.6-55.2c-4.3-27-23.8-48.4-35.5-59.1-7.7 13.8-19.7 40.3-15.4 67.2 4.3 26.8 23.8 48.4 35.5 59.1 7.8-13.8 19.7-40.3 15.4-67.2zM288 629.2c10.8 11.4 32.7 30.7 59.6 34.5 26.9 3.7 53.2-8.5 66.9-16.6-10.9-11.4-32.7-30.6-59.6-34.4-26.9-3.8-53.3 8.6-66.9 16.5zM211.7 575c9.8 25.5 33.3 42.4 46.9 50.4 4.7-15.1 10.9-43.5 1.2-68.9-9.8-25.3-33.3-42.3-46.9-50.4-4.8 15.1-10.9 43.5-1.2 68.9z m447.8-321.9c10.5 11.8 31.6 31.8 58.4 36.5 26.7 4.8 53.5-6.5 67.4-14-10.5-11.9-31.6-31.8-58.3-36.6-26.9-4.8-53.6 6.7-67.5 14.1z m-0.7-93.1c-15.4 22.4-15.9 51.5-14.8 67.2 15.2-4.7 42-15.7 57.4-38.2 15.3-22.4 15.8-51.5 14.7-67.2-15.2 4.6-42 15.6-57.3 38.2zM558.5 372.9c26-8.1 44.4-30.6 53.3-43.6-14.7-5.7-42.7-13.6-68.7-5.6-6.1 1.9-11.9 4.7-17.1 8-10.8 9.5-21.5 19.6-32 30-1.5 2-2.9 4-4.1 5.7 14.8 5.7 42.8 13.6 68.6 5.5zM623.7 238c-1.9-13.9-5.4-56.5 17.4-90.1 27.2-39.8 80-49.8 82.3-50.1 0.6-0.1 1.3-0.2 1.9-0.2 4.9 0 9.4 3.5 10.5 8.7 0.4 2.2 10.4 55-16.8 94.8-3.4 5-7.3 9.6-11.4 13.7 0.7 0.5 1.4 1.3 1.9 2 6.9-0.3 14 0 21.3 1.3 38.6 6.9 66 37.3 75.6 49.5 2.2 2.8 3.5 4.7 3.7 5 3.3 4.8 2.1 11.4-2.7 14.7-1.6 1.2-35.8 25-76.3 25-5.6 0-11.3-0.4-17-1.5-47.4-8.4-78.2-52.6-79.5-54.4 0-0.1 0-0.2-0.1-0.3-22.9 11.2-45.8 25.7-68.7 42.9 35-0.3 64.8 15.2 66.4 16 5.1 2.8 7.2 9.1 4.5 14.3-1.1 2-26 49.6-71.9 64-10.3 3.2-20.6 4.5-30.4 4.5-28.3 0-53-10.3-61.7-14.4-23.3 24.5-46 50.5-67.8 77.5 11.2-5.2 23.9-9.3 37.8-10.3 48-3.1 88.5 32 90.2 33.5 4.4 4 4.8 10.6 1 15.1-1.4 1.7-36.8 42.1-84.8 45.4-2.1 0.1-4.2 0.2-6.3 0.2-37 0-68.4-21.6-79.6-30.3-21 28.2-41 56.5-59.5 84 15.5-5.7 34.5-9.6 54.3-6.8 47.6 6.7 79.9 49.7 81.3 51.5 3.4 4.7 2.5 11.3-2.1 14.8-1.7 1.3-37 27.8-79.1 27.8-4.4 0-8.9-0.2-13.4-0.9-32.3-4.6-57.4-25.6-70.7-39.4-1 1.9-2.5 3.4-4.2 4.4-61.6 96.3-101.1 171.6-102.1 173.6-1.9 3.7-5.6 5.8-9.5 5.8-1.6 0-3.3-0.3-4.9-1.2-2.8-1.4-4.6-3.8-5.3-6.5-0.7-2.6-0.4-5.4 0.9-7.9 1-1.9 39.1-74.9 99.6-169.4-16.2-9.5-44.2-29.6-56.5-61.4-17.2-45 4.6-94.1 5.6-96.1 2.5-5.3 8.7-7.7 14-5.3 2 0.9 51.2 22.8 68.4 67.7 4.8 12.5 6.5 25.3 6.6 37.4 18.4-27 38-54.9 58.9-82.8-12.7-10.7-40.7-38-46.6-75.4-7.6-47.5 23.9-91 25.3-92.8 3.4-4.7 10-5.8 14.7-2.4 1.9 1.3 45.4 32.8 53 80.4 1.7 10.7 1.3 21.2-0.1 31 18.1-22.1 36.8-43.7 55.9-64.3-8.4-13.4-27.8-48.9-21.8-87.2 7.6-47.6 51-79.3 52.8-80.6 4.8-3.4 11.3-2.4 14.8 2.4 1.4 1.8 33 45.2 25.5 92.8-0.2 1.3-0.5 2.6-0.9 3.8 34.5-30.4 70-55.7 105.6-73.5z" fill="#4F5953" p-id="4685"></path><path d="M632.3 315c-1.6-0.9-31.4-16.3-66.4-16 22.9-17.2 45.8-31.7 68.7-42.9 0.1 0.1 0.1 0.2 0.1 0.3 1.3 1.8 32 45.9 79.5 54.4 5.7 1.1 11.4 1.5 17 1.5 40.5 0 74.7-23.8 76.3-25 4.8-3.3 6-9.9 2.7-14.7-0.2-0.3-1.5-2.2-3.7-5l80.4 0.4c78.1 237.1-17.7 630.4-18.7 634.6-0.9 3.1-0.1 6.3 1.7 8.9l17.7 24.1c-66.4-6.3-256-22.9-375-17.3-120.4 5.7-319.4 15.3-386 18.6l18.6-25.4c1.9-2.5 2.6-5.8 1.8-8.8-0.2-1.1-7.2-30.9-15.5-78.4l16.3-2.7c0.7 2.7 2.6 5.1 5.3 6.5 1.6 0.9 3.3 1.2 4.9 1.2 4 0 7.6-2 9.5-5.8 1.1-2 40.5-77.3 102.1-173.6 1.7-1 3.2-2.5 4.2-4.4 13.4 13.8 38.5 34.8 70.7 39.4 4.5 0.6 9 0.9 13.4 0.9 42.1 0 77.3-26.5 79.1-27.8 4.6-3.5 5.6-10.1 2.1-14.8-1.4-1.8-33.7-44.8-81.3-51.5-19.8-2.8-38.8 1.2-54.3 6.8 18.5-27.5 38.5-55.8 59.5-84 11.2 8.8 42.6 30.3 79.6 30.3 2.1 0 4.2-0.1 6.3-0.2 48.1-3.3 83.4-43.7 84.8-45.4 3.8-4.5 3.4-11.1-1-15.1-1.7-1.5-42.2-36.6-90.2-33.5-13.9 1-26.6 5-37.8 10.3 21.8-26.9 44.5-53 67.8-77.5 8.8 4.2 33.4 14.4 61.7 14.4 9.8 0 20.2-1.3 30.4-4.5 45.9-14.4 70.8-62 71.9-64 3-5.2 1-11.5-4.2-14.3z m-43.9 225.9c3.1 38.2 35.6 65.8 37 67h0.1c-7.7 13-15.2 26.5-22.2 40.3-0.4-2-0.9-4-1.5-6-11-36.8-48.5-57-50.1-57.9-5.1-2.7-11.5-0.7-14.3 4.4-1 1.5-21.3 39.1-10.3 75.9 8.2 27.7 31.5 45.9 43.2 53.7-15 34.9-28.3 70.2-39.8 103.6-1.9 5.6 1.1 11.6 6.6 13.6 1.2 0.4 2.4 0.6 3.4 0.6 4.5 0 8.7-2.8 10.1-7.2 10.8-31.2 24.7-68.2 41.2-106.3 10.5 11.4 27.6 26.1 49.8 31 5.8 1.3 11.4 1.8 17 1.8 30.7 0 56.7-16.6 58-17.4 4.9-3.2 6.3-9.7 3.2-14.6-1-1.5-23.8-37.5-61.3-45.8-5.7-1.3-11.3-1.7-16.8-1.7-11.1 0-21.6 2.1-30.6 4.9 9.8-20.4 20.5-40.7 31.9-60.1 12.4 9.3 33.1 21.3 57.2 21.5h0.6c38.1 0 68.3-29.6 69.5-30.8 4.1-4.2 4.2-10.9 0.1-15.1-1.3-1.3-31.2-31.7-69.5-32h-0.6c-7.9 0-15.5 1.3-22.5 3.3 13.2-17.8 27.2-34.1 42-48 0.7 0.9 1.5 1.6 2.6 2.1 1.2 0.6 24.3 12.6 51.6 12.6 7.9 0 16.1-1 24.5-3.5 36.5-11.5 56.3-49.5 57.2-51.1 2.7-5.1 0.6-11.5-4.6-14.2-1.5-0.9-39.4-20.6-76-9.1-3.4 1.1-6.6 2.4-9.6 3.8 0.3-1.3 0.7-2.5 1-3.6 8.9-37.4-13.6-73.7-14.5-75.2-3.1-5-9.5-6.5-14.5-3.5-1.6 1-37.9 23.4-46.7 60.8-6.8 28.5 4.7 56.4 10.9 68.7-12.4 12-24.3 25.4-35.6 40.2 0.3-4.2 0.4-8.5 0.1-13-3.1-38.2-35.7-65.8-37.1-67-4.5-3.7-11.1-3.2-15 1.2-1.2 1.3-28.8 33.8-25.7 72.1z" fill="#FFFDC0" p-id="4686"></path><path d="M717.5 89.7c-38.9 1.9-74.7 8.7-112.6 15.8-58.8 11-125.4 23.5-225.2 23.5-105.9 0-204.6-12.6-261.7-21.6 2.9 2.6 5.8 5.4 8.5 8.4 22.1 24 43.7 64.5 20 121.4-73.2 175.8-38.6 452.5-15 586.9 8.3 47.5 15.3 77.3 15.5 78.4 0.7 3 0.1 6.3-1.8 8.8l-18.6 25.4c66.6-3.3 265.6-12.9 386-18.6 119-5.6 308.5 11 375 17.3l-17.7-24.1c-1.8-2.6-2.6-5.8-1.7-8.9 1-4.2 96.8-397.5 18.7-634.6-5.2-15.8-11.2-30.9-18.1-45.2-15.6-32.6-18.6-61.9-8.8-86.9 5.7-14.3 14.6-24.8 23.2-32.3C850.3 97 788.8 87.1 725 89.5c-2.5 0-5.1 0.1-7.5 0.2z m-116.6-5.3c38.7-7.3 75.2-14.1 115.5-16 99.6-5 192.7 18.9 196.7 19.9 4.5 1.2 7.7 5.1 8 9.7 0.2 4.6-2.5 9-6.8 10.6-0.1 0.1-24.7 10.3-34.4 35.3-7.5 19.2-4.7 42.6 8.2 69.7 107.7 224.6 14.4 636.9 1.9 689.2l29 39.4c2.6 3.4 2.8 8 0.7 11.6-1.9 3.4-5.6 5.4-9.3 5.4-0.4 0-0.7-0.1-1.2-0.1-2.5-0.2-251.8-26.3-395.6-19.6-146.3 6.8-408.5 19.6-408.5 19.6-4.3 0.3-7.9-1.9-9.9-5.6-1.9-3.6-1.6-8.1 0.9-11.4l29.1-39.4c-11.5-50.4-95.5-440.5 1.6-673.7 37-88.7-57.4-129.5-61.4-131.2-5-2.1-7.7-7.7-6.1-13 1.7-5.2 7.1-8.3 12.4-7.3 1.5 0.3 146.5 30.1 308.1 30.1 97.7 0 163.3-12.3 221.1-23.2z" fill="#4F5953" p-id="4687"></path></svg>