<?xml version="1.0" standalone="no"?><!DOCTYPE svg PUBLIC "-//W3C//DTD SVG 1.1//EN" "http://www.w3.org/Graphics/SVG/1.1/DTD/svg11.dtd"><svg t="1608826572631" class="icon" viewBox="0 0 1024 1024" version="1.1" xmlns="http://www.w3.org/2000/svg" p-id="21439" xmlns:xlink="http://www.w3.org/1999/xlink" width="64" height="64"><defs><style type="text/css"></style></defs><path d="M171.547448 667.218376A160.116062 160.116062 0 0 1 64.708004 516.154887v-42.634015A160.063061 160.063061 0 0 1 204.07947 314.804036l2.406246-245.7551q63.410413-47.891716 82.427176-45.729274 182.132683 20.649195 252.284825 160.847476v580.668505q-127.202433 182.9913-386.048783 167.82241-71.593769-4.240081-93.387786-104.942007z m0 0" fill="#FFFFFF" p-id="21440"></path><path d="M396.50495 407.608811c-0.296806 0.731414-0.583011 1.484028-0.869217 2.226043a106.733441 106.733441 0 0 1 97.967074 106.341234v120.831711a159.787456 159.787456 0 0 0 48.209722 91.54335c-11.246815 66.039263-54.813648 125.326197-178.210608 184.56013a481.016 481.016 0 0 1-120.969514 26.691311c-77.752487-9.635584-124.552382-58.481318-124.552382-98.136677 0-14.999287 8.808768-29.033955 24.126062-41.033385l-0.943418-1.378026c15.338493-16.599917 87.048865-65.530453 118.595068-118.446666q21.878818-36.655501 29.023355-121.902331a160.063061 160.063061 0 0 1 107.623858-151.296694z m0 0" fill="#FF6666" p-id="21441"></path><path d="M450.915791 430.929257a109.309291 109.309291 0 0 1 9.794587 8.310559c-0.360407 0.890417-0.710214 1.780834-1.06002 2.681852 1.388627 0.116602 2.787853 0.254405 4.165879 0.413407a106.383635 106.383635 0 0 1 29.76537 73.904614v120.842311a159.660254 159.660254 0 0 0 48.209722 91.543351c-11.225615 65.965062-54.792448 125.251995-178.189408 184.485928-64.057025 23.384047-124.107174 28.419144-157.116205 28.419144a215.311318 215.311318 0 0 1-54.442641-6.741729 118.722271 118.722271 0 0 1-14.967487-15.052288q0.572411-8.480162 1.621831-17.320731 165.363163 18.84716 259.969972-131.442514 43.694036-75.038835 30.242379-338.909682l2.12004-0.254405-0.53001-0.954018z m0 0" fill="#E55A5A" p-id="21442"></path><path d="M170.805434 666.932171a159.660254 159.660254 0 0 1-52.704208-118.722271v-42.655215a160.211464 160.211464 0 0 1 214.124095-150.713683 160.593071 160.593071 0 0 1 34.758065 44.997861 160.116062 160.116062 0 0 0-142.16992 159.066642v117.354844a160.063061 160.063061 0 0 1-54.008032-9.328178z m0 0M395.646334 409.866654a133.456552 133.456552 0 0 1 258.083136 47.700913v144.024954h-1.897437v170.663264a160.169063 160.169063 0 0 1-158.208025-135.364589V516.229089a106.722841 106.722841 0 0 0-97.977674-106.362435z m0 0" fill="#FF6666" p-id="21443"></path><path d="M278.206688 68.063117l245.521895 106.712241v335.772022L288.881092 313.479011z m0 0" fill="#FF6666" p-id="21444"></path><path d="M434.072069 67.70271c72.558388 47.086101 111.662536 114.333787 88.098285 155.080966-19.981382 34.609662-79.088113 39.665959-143.653948 16.366713-72.558388-47.086101-123.863369-130.318892-100.309718-171.087272 19.981382-34.599062 91.299546-23.659653 155.82298-0.360407z m0 0" fill="#FF6666" p-id="21445"></path><path d="M198.376561 74.062832h38.807342v242.532639h-38.807342z" fill="#E55A5A" p-id="21446"></path><path d="M510.934139 210.105834h38.807342v106.722841h-38.807342z" fill="#E55A5A" p-id="21447"></path><path d="M452.569422 274.798871q-3.180061 0-6.519124-0.116602c-39.930964-1.409827-85.257431-15.6989-127.796044-40.28077s-77.540483-56.679284-98.730289-90.546932c-23.755054-37.969926-27.867933-74.413423-11.660223-102.556962s49.820953-42.761218 94.60681-41.181787c39.962764 1.505229 85.289231 15.751901 127.817244 40.28077s77.551083 56.679284 98.740889 90.546932c23.755054 37.980526 27.899734 74.402823 11.660223 102.546361-15.444495 26.765512-46.577291 41.340791-88.098285 41.340791zM296.078629 42.739233c-25.302684 0-43.810638 7.155137-51.167178 19.960182-7.85475 13.61066-3.890274 34.980669 10.875808 58.56612 17.553936 28.058737 47.372306 55.121054 83.890004 76.226058s74.805631 33.358838 107.984266 34.53546c27.814932 0.943418 48.315724-6.25412 56.181074-19.89658s3.900875-34.980669-10.865208-58.56612c-17.564536-28.069337-47.372306-55.121054-83.900604-76.226058s-74.837431-33.316437-108.047867-34.535461c-1.717233 0-3.360264-0.063601-4.992695-0.063601z m-89.592913 918.094159c-46.958898 0-90.695335-13.176052-123.153155-37.10071-30.517984-22.50423-48.760933-53.191817-48.760933-82.066769 0-24.189663 15.073488-42.400811 28.207139-55.492062l0.699614-0.710213c39.369153-42.623415 67.512691-78.579303 86.010045-125.792606a20.468991 20.468991 0 0 1 26.044698-11.660223 140.11348 140.11348 0 0 0 29.839571 7.526144v-96.631448a179.514433 179.514433 0 0 1 159.48005-178.348411 58.438918 58.438918 0 0 1 6.360121-0.381607c3.074059-0.063601 7.017334-0.116602 10.833408-0.116603h0.805615c16.525716 0 19.737577 0.646612 21.465411 0.954019 30.263579 6.052716 57.930108 23.150843 77.91149 48.14612a139.922676 139.922676 0 0 1 30.740588 86.995864V643.060514c5.194099 30.888991 20.490192 50.796171 41.817799 71.021359a20.341789 20.341789 0 0 1 6.020915 18.211148c-14.045269 81.112751-72.272182 142.22292-188.80021 198.223791-0.466409 0.222604-0.996419 0.455809-1.56883 0.667813l-0.275606 0.106002c-72.961195 26.68071-138.746054 29.542765-163.67773 29.542765z m-27.560527-271.078985c-20.553793 45.167464-49.905754 81.960768-86.921663 122.093136-0.445209 0.477009-1.208423 1.250824-1.727833 1.759633-11.808626 11.798026-16.833122 20.140385-16.833122 28.048137 0 16.356113 12.635442 35.839285 32.966631 50.880973 25.811494 19.080365 61.353973 29.532165 100.076514 29.532165 22.737435 0 82.681581-2.62885 149.579461-26.882115 56.340078-27.125919 96.960054-54.813648 124.170775-84.632018 21.052003-23.076641 34.111452-47.266304 40.513974-75.441643-20.235787-20.532593-40.026366-47.181502-46.291085-87.419872-0.296806-1.57943-0.296806-1.57943-0.296806-9.815788V516.218488c0-46.365287-33.083233-87.981683-77.031673-97.002455-4.420285-0.445209-22.663233-0.371007-27.560527-0.137802h-0.477009a140.442086 140.442086 0 0 0-124.859788 139.827274v116.411426a20.362989 20.362989 0 0 1-20.37359 20.36299h-0.127202a179.525033 179.525033 0 0 1-44.796457-5.925514z m176.387373 205.771136l-0.127202 0.063601z m0 0" fill="#E55A5A" p-id="21448"></path><path d="M244.794849 696.15693H225.279875c-99.239098 0-180.002043-80.720544-180.002042-179.938442v-42.697616c0-98.963493 80.561541-179.482633 179.482632-179.482633a179.143426 179.143426 0 0 1 159.43765 96.801052l13.038249 25.14368-28.122338 3.180061a141.311303 141.311303 0 0 0-125.082392 140.219482z m-19.981383-363.268948c-77.561683 0-140.67529 63.103007-140.67529 140.675291v42.634015c0 71.201562 53.054015 130.265891 121.669127 139.795474l-0.53001-96.642049a180.267048 180.267048 0 0 1 130.022087-172.942307 140.357284 140.357284 0 0 0-110.528314-53.478023z m0 0" fill="#E55A5A" p-id="21449"></path><path d="M670.901798 788.410494h-19.408971c-42.920221 0-85.342232-15.232491-119.474885-42.90962l24.380466-30.136377a153.056327 153.056327 0 0 0 75.643047 32.860629V458.563986a123.831568 123.831568 0 0 0-32.765227-83.529598c-21.200405-22.726835-49.259142-35.277475-79.024511-35.277474a114.100582 114.100582 0 0 0-106.510837 73.258001l-36.210293-13.886266a152.897324 152.897324 0 0 1 142.774131-98.189678c40.672978 0 78.823108 16.960324 107.433055 47.647911a160.858076 160.858076 0 0 1 43.164025 109.977104z m0 0" fill="#E55A5A" p-id="21450"></path><path d="M110.575082 887.055981a332.316356 332.316356 0 0 1-37.577719-2.183642 14.554078 14.554078 0 1 1 3.296663-28.874952c52.015195 5.914913 98.942292-1.462828 139.488068-21.95302s76.459262-55.046853 106.394235-102.50396c13.419857-23.235644 22.652633-62.625998 27.465125-117.10044 4.929094-56.106873 5.109298-129.099869 0.55121-216.954349a14.547718 14.547718 0 0 1 29.055156-1.53703c9.476581 182.397688-0.943418 297.017681-32.002012 350.389702l-0.254405 0.434608c-58.703923 93.281784-138.131242 140.304283-236.384521 140.304283z m0 0" fill="#E55A5A" p-id="21451"></path></svg>