<?xml version="1.0" standalone="no"?><!DOCTYPE svg PUBLIC "-//W3C//DTD SVG 1.1//EN" "http://www.w3.org/Graphics/SVG/1.1/DTD/svg11.dtd"><svg t="1608826587635" class="icon" viewBox="0 0 1024 1024" version="1.1" xmlns="http://www.w3.org/2000/svg" p-id="21638" xmlns:xlink="http://www.w3.org/1999/xlink" width="64" height="64"><defs><style type="text/css"></style></defs><path d="M307.6 810.8c-5.4 0-14.9 3.9-25.8 3.9s-20.4-3.9-25.8-3.9c-3 0-4.8 1.2-4.8 5.1l11.5 117.4c0 6.5 12 12.5 22.9 12.5 9 0 17.2-4.1 17.2-15.4l9.6-114.5c0.1-3.9-1.7-5.1-4.8-5.1zM236 660.5c39.2 0 72.1-66.1-22.4-109.3h-0.1c-84.1-38.7-77.2-99.5-77.2-99.5-10.6 21.5 11.9 208.8 99.7 208.8z m-35-82.1l3.6 1.7c30.7 14.8 42.3 31.6 40.1 41.9-1.1 5-5.4 8.4-8.7 8.4-3.9 0-15.9 0-30.3-17.9-8.7-10.7-16.6-25.7-23.2-43.6 5.7 3.3 11.9 6.5 18.5 9.5z" fill="#2c2c2c" p-id="21639"></path><path d="M236 528.3c39.2 0 72.1-66.1-22.4-109.4h-0.1c-84.1-38.5-77.2-99.3-77.2-99.3-10.6 21.4 11.9 208.7 99.7 208.7z m-35-82.2l3.2 1.4c31.1 15 42.8 31.9 40.5 42.3-1.1 5-5.4 8.4-8.7 8.4-3.9 0-15.9 0-30.3-17.9-8.7-10.8-16.6-25.7-23.2-43.8 5.7 3.4 11.9 6.6 18.5 9.6z" fill="#2c2c2c" p-id="21640"></path><path d="M236 399.9c39.2 0 72.1-65.9-22.4-109.4h-0.1c-84.1-38.3-77.2-99.3-77.2-99.3-10.6 21.4 11.9 208.7 99.7 208.7z m-34.9-82.1l2.7 1.2c31.4 15.1 43.2 32.1 41 42.5-1.1 5-5.4 8.4-8.7 8.4-3.9 0-15.9 0-30.4-18-8.7-10.7-16.6-25.7-23.2-43.6 5.7 3.3 11.9 6.4 18.6 9.5zM352.4 551.2c-94.3 43.1-61.6 109.3-22.3 109.3 87.6 0 110-187.3 99.6-208.8 0.1 0.1 6.9 60.9-77.3 99.5z m7.8 61.6c-14.4 17.8-26.2 17.8-30.1 17.8-3.4 0-7.7-3.4-8.8-8.5-2.3-10.7 10.2-28.3 43.5-43.6 6.6-3.1 12.8-6.2 18.6-9.5-6.5 18-14.5 33-23.2 43.8zM213.6 686.8c-84.1-38.6-77.3-99.5-77.3-99.5-10.6 21.5 11.9 208.8 99.7 208.8 39.2 0 72.1-66.2-22.4-109.3z m31.1 70.9c-1.1 5-5.4 8.4-8.7 8.4-3.9 0-15.9 0-30.3-17.9-8.7-10.7-16.6-25.7-23.2-43.6 5.7 3.3 11.9 6.5 18.5 9.5l3.6 1.7c30.8 14.7 42.4 31.5 40.1 41.9z" fill="#2c2c2c" p-id="21641"></path><path d="M352.4 686.8c-94.3 43.2-61.6 109.3-22.3 109.3 87.6 0 110-187.3 99.6-208.8 0.1 0 6.9 60.8-77.3 99.5z m7.8 61.5c-14.4 17.8-26.2 17.8-30.1 17.8-3.4 0-7.7-3.4-8.8-8.4-2.3-10.7 10.2-28.3 43.6-43.6 6.6-3.1 12.8-6.2 18.6-9.5-6.6 17.9-14.6 32.9-23.3 43.7zM330.2 796.1c-0.1 0-0.1 0 0 0zM330.2 528.3c-0.1 0-0.1 0 0 0zM352.4 418.9c-94.3 43.3-61.6 109.4-22.3 109.4 87.6 0 110-187.3 99.6-208.8 0.1 0 6.9 60.8-77.3 99.4z m7.8 61.6c-14.4 17.8-26.2 17.8-30.1 17.8-3.4 0-7.7-3.4-8.8-8.4-2.3-10.7 10.2-28.4 43.5-43.7 6.7-3.1 12.9-6.2 18.6-9.5-6.5 18-14.4 33-23.2 43.8z" fill="#2c2c2c" p-id="21642"></path><path d="M352.4 290.4c-94.3 43.4-61.6 109.4-22.3 109.4 87.6 0 110-187.2 99.6-208.7 0.1 0.1 6.9 61-77.3 99.3z m7.9 61.7c-14.4 17.8-26.2 17.8-30.1 17.8-3.4 0-7.7-3.4-8.8-8.4-2.3-10.7 10.2-28.4 43.5-43.8 6.7-3 12.9-6.2 18.6-9.5-6.6 18.1-14.5 33.1-23.2 43.9zM330.2 399.9c-0.1 0-0.1 0 0 0z" fill="#2c2c2c" p-id="21643"></path><path d="M289.1 300.5c93 0-5.1-201.5-5.1-201.5-11.8 18.9-87.9 201.5 5.1 201.5z m-6.3-114.2c0.5-2 1.1-4 1.7-6 0.3 1 0.6 1.9 0.9 2.9 17.3 53.4 14.9 78.9 10.8 85.5-0.4 0.6-0.5 0.7-0.7 0.8-0.4 0.2-2.2 1-6.3 1-9.1 0-10.5-2.6-11.6-4.5-5.5-9.5-6.9-35.4 5.2-79.7zM509.5 835.1c-11.7-5.5-19.4-15.3-24.4-15.3-1.5 0-2.8 0.9-3.9 3.3L443 934.3c-3.5 7.8 12 23.6 24.9 23.6 5.1 0 9.8-2.5 12.7-8.9l56.1-99.8c4.5-9.6-11.8-7-27.2-14.1zM531.7 675.5c4.9 2.3 10.3 3.5 15.7 3.5 33.4 0 67.8-43.6 9.4-112.2-60.1-71.1-28.8-123.3-28.8-123.3-18.6 14.9-75.7 194.5 3.7 232zM521.3 570c3.7 5.3 7.9 10.7 12.5 16.2 23.4 27.5 27 47.6 22.9 56.4-2.2 4.7-6.5 6.4-9.5 6.4-1.1 0-2-0.2-2.9-0.6-3.6-1.7-14.6-6.9-20.3-29.8-3.1-13.3-4.1-29.9-2.7-48.6z" fill="#2c2c2c" p-id="21644"></path><path d="M586.5 555.7c4.9 2.3 10.3 3.4 15.7 3.4 33.4 0 67.9-43.5 9.5-112.4-60.1-70.9-28.8-123.1-28.8-123.1-18.7 14.9-75.8 194.4 3.6 232.1z m-10.4-105.8c3.8 5.3 7.9 10.7 12.6 16.2 23.5 27.7 27 47.8 23 56.6-2.2 4.7-6.5 6.4-9.5 6.4-1.1 0-2-0.2-2.9-0.6-3.7-1.7-14.6-7-20.3-29.9-3.4-13.3-4.3-30-2.9-48.7z" fill="#2c2c2c" p-id="21645"></path><path d="M639.7 439.2c4.9 2.3 10.3 3.4 15.6 3.4 33.4 0 67.8-43.4 9.4-112.2-60.3-70.8-28.7-123.2-28.7-123.2-18.6 14.9-75.7 194.4 3.7 232z m-10.4-105.6c3.8 5.3 8 10.8 12.7 16.2 23.4 27.6 27 47.7 22.9 56.4-2.2 4.7-6.5 6.3-9.5 6.3-1.1 0-2-0.2-2.8-0.6-3.7-1.7-14.7-7-20.4-30-3.4-13.1-4.3-29.6-2.9-48.3zM685.2 626.3h-5c-101.1 0-98.4 72.9-63 89.7 8.2 3.9 16.7 5.6 25.2 5.6 73.5 0 152.2-130.8 151.6-152.4 0 0.1-18.6 57.1-108.8 57.1z m-7.5 51.6c-13.1 9-25.3 13.7-35.3 13.7-4.4 0-8.4-0.9-12.4-2.7-3.3-1.6-6-6.8-4.8-12.1 2.3-10.2 20.2-20.5 55-20.5h4.9c6.6 0 12.8-0.3 18.8-0.8-8.8 9.1-17.7 16.6-26.2 22.4zM475.6 798.4c5 2.3 10.3 3.5 15.7 3.5 33.4 0 67.7-43.5 9.4-112.2-60.2-71-28.9-123.2-28.9-123.2-18.5 14.9-75.6 194.5 3.8 231.9z m-10.4-105.6c3.8 5.3 8 10.8 12.6 16.3 23.4 27.6 27 47.6 22.9 56.4-2.2 4.7-6.4 6.3-9.4 6.3-1.1 0-2.1-0.2-3-0.6-3.6-1.7-14.5-6.8-20.3-29.6-3.2-13.3-4.2-29.9-2.8-48.8z" fill="#2c2c2c" p-id="21646"></path><path d="M629.1 749.2h-4.9c-101.3 0-98.6 73-63.2 89.7 8.3 3.9 16.7 5.7 25.3 5.7 73.5 0 152.1-130.9 151.5-152.4 0.1 0-18.6 57-108.7 57z m-7.5 51.6c-13.1 9-25.3 13.7-35.2 13.7-4.4 0-8.5-0.9-12.5-2.8-3.2-1.5-5.9-6.7-4.7-11.9 2.3-10.3 20.2-20.6 55.2-20.6h4.8c6.5 0 12.8-0.3 18.7-0.8-8.9 9-17.8 16.6-26.3 22.4zM740 506.4H735.3c-101.2 0-98.5 73.1-63.1 89.7 8.3 3.9 16.7 5.7 25.2 5.7 73.5 0 152.1-131 151.5-152.4-0.1-0.1-18.7 57-108.9 57z m-7.5 51.5c-13.1 9-25.3 13.7-35.2 13.7-4.4 0-8.5-0.9-12.4-2.8-3.2-1.5-5.9-6.7-4.7-11.9 2.3-10.3 20.2-20.6 55.1-20.6h4.7c6.6 0 12.9-0.3 18.8-0.8-8.9 9.1-17.8 16.7-26.3 22.4z" fill="#2c2c2c" p-id="21647"></path><path d="M790.7 389.9h-2.3c-101.3 0-98.5 73-63.2 89.6 8.3 3.9 16.8 5.7 25.3 5.7 73.5 0 151.9-130.8 151.4-152.3 0 0-18.7 57-108.3 57h-2.9z m-4.9 51.5c-13.1 9-25.3 13.7-35.2 13.7-4.4 0-8.5-0.9-12.5-2.8-3.2-1.5-5.9-6.7-4.7-11.9 2.3-10.2 20.2-20.6 55.1-20.6H793.7c6.4 0 12.5-0.3 18.4-0.7-9 9-17.8 16.6-26.3 22.3z" fill="#2c2c2c" p-id="21648"></path><path d="M729.2 371.8c6.9 3.2 13.1 4.7 18.8 4.7 64.6 0 60-189.7 60-189.7-18.5 12.3-163 145.1-78.8 185zM771 265.1c1.2-1.5 2.5-2.9 3.7-4.4-6.7 61.8-20.1 79.9-24.1 84-0.5 0.6-1.9 1.8-2.6 1.8-0.5 0-2.4-0.1-6-1.8-8.5-4-8.8-7.2-8.9-9.6-0.9-11 8.6-35.2 37.9-70z" fill="#2c2c2c" p-id="21649"></path></svg>