<?xml version="1.0" standalone="no"?><!DOCTYPE svg PUBLIC "-//W3C//DTD SVG 1.1//EN" "http://www.w3.org/Graphics/SVG/1.1/DTD/svg11.dtd"><svg t="1608826483067" class="icon" viewBox="0 0 1024 1024" version="1.1" xmlns="http://www.w3.org/2000/svg" p-id="18756" xmlns:xlink="http://www.w3.org/1999/xlink" width="64" height="64"><defs><style type="text/css"></style></defs><path d="M132.2 520a409 342 0 1 0 818 0 409 342 0 1 0-818 0Z" fill="#35383A" p-id="18757"></path><path d="M389.2 615c-8 21-10 37-8 50 3 18 16 55 28 64 12 10 90 51 155 25 43-18 68-51 74-101-5-45-24-75-58-89-34-15-71-8-110 19l-52 9-29 23z" fill="#FFF9C0" p-id="18758"></path><path d="M517.2 764c-19 0-37-4-51-8-29-8-52-21-58-26-13-9-26-48-29-65-1.3-17.8 1.8-35.7 9-52l29-22 52-9c40-28 77-34 112-20 34 15 54 45 58 91-6 50-31 85-75 102-15 7-32 9-47 9z m-127-149c-7 21-10 37-8 49 3 18 16 55 28 64 7 6 55 33 107 33 37.4 0.2 72.7-16.8 96-46 13-17 20-38 23-62-4-45-23-74-57-88-33-14-70-7-109 19v1l-52 9-28 21z" fill="#35383A" p-id="18759"></path><path d="M380.2 661c-9 73 31 111 120 114 134 5 145-95 138-134-4-19-1 49-43 85s-104 27-135 24c-47-6-73-36-80-89z" fill="#FFCC14" p-id="18760"></path><path d="M509.2 777h-9c-49-2-83-14-103-37-16-19-23-46-18-79l1-2 2 2c3 26 11 47 24 61s31 23 54 26c30 4 92 11 134-23 29-25 37-65 39-80 2-7 2-8 4-8l2 4c5 26 1 66-25 96-23 27-58 40-105 40z m-128-104c-2 27 5 49 18 65 19 22 53 34 101 36h9c46 0 80-13 103-39 24-28 28-66 25-91l-1 1c-3 16-10 57-40 82-43 36-106 28-136 24-44-5-70-31-79-78z" fill="#35383A" p-id="18761"></path><path d="M507.2 666c-61 13-92 23-91 28 2 8 8 47 55 35 4-4 16-25 36-63z" fill="#FFF26D" p-id="18762"></path><path d="M454.2 732c-8 0-15-2-21-5-14-9-17-27-18-32v-1c-1-5 10-12 92-30h3l-1 3c-21 38-33 59-38 63-6 2-12 2-17 2z m51-64c-29 6-50 12-65 16-21 6-22 9-22 10 1 6 4 22 17 30 8 6 20 7 35 3 3-2 11-15 35-59z" fill="#FFF9C0" p-id="18763"></path><path d="M510.2 666l-38 62c26 16 47 15 63 0 2-1-6-21-25-62z" fill="#FFF26D" p-id="18764"></path><path d="M507.2 741c-11 0-23-4-36-11l-1-1 40-66 1 2c28 59 26 62 26 63l-1 1c-9 8-18 12-29 12z m-33-13c25 14 44 14 60-1 0-2-3-12-25-58l-35 59z" fill="#FFF9C0" p-id="18765"></path><path d="M511.2 665l27 62c25 2 41-6 48-25-1-3-26-15-75-37z" fill="#FFF26D" p-id="18766"></path><path d="M545.2 729h-8l-1-1-28-66 4 2c74 32 75 36 75 37v1c-6 18-21 27-42 27z m-6-3c23 1 38-6 45-24-2-2-14-10-70-34l25 58z" fill="#FFF9C0" p-id="18767"></path><path d="M508.2 665l-96 27c-17-21-16-35 3-43s51-3 93 16z" fill="#FFF26D" p-id="18768"></path><path d="M412.2 694l-1-1c-10-12-14-22-12-30 1-6 7-12 16-15 20-8 51-3 94 16l3 1-100 29z m24-47c-8 0-14 1-20 4-8 3-13 7-14 13-2 7 2 15 11 26l90-25c-27-12-49-18-67-18z" fill="#FFF9C0" p-id="18769"></path><path d="M511.2 664l77 35c13-9 19-21 18-38s-32-16-95 3z" fill="#FFF26D" p-id="18770"></path><path d="M588.2 700l-81-36 4-1c51-16 81-19 92-11 3 2 5 5 5 9 0 17-6 30-19 39h-1z m-72-35l72 32c12-8 18-20 17-36 0-3-1-5-4-7-10-7-39-3-85 11zM311 413.4l13.8 160.1c-14.7-17.5-25.3-33-31.7-45.4-11.6-45.6-18.7-51.4-0.8-88.1 11.6-24.5 18-33.5 18.7-26.6z" fill="#FFF9C0" p-id="18771"></path><path d="M324.4 574c-15.2-17.9-25.9-33.3-32.2-45.8l-5.4-20.5c-7.2-28.2-10.2-37.4 5-68.1 14.5-29.6 17.4-29.2 18.3-29.3 1.4 0.2 1.4 2.6 1.9 2.9l13.8 160.1-0.4 0.5-1 0.2z m-31.3-45.9c6.7 11.9 16.8 27 30.8 43.2l-13.3-157.4-0.8-2.2c-0.9 0.2-3.8 2.1-17 28.6-14.9 30.1-12.4 39-4.8 66.7l5.1 21.1z" fill="#35383A" p-id="18772"></path><path d="M311.3 411.9c-11.5 11.8-18.8 28.9-21.9 51.4-4 22.6-8.3 54.7 22.7 93.2 30.1 30.7 0 13.5-19.8 4.4-29.7-25.7-70.5-67.2-28.5-129.1 14.9-18.9 30.6-25.3 47.5-19.9z" fill="#FFCC14" p-id="18773"></path><path d="M291.9 561.5c-7.2-6.7-15.5-14.1-23.1-22.6-8.2-9.8-14.5-19-18-28.6-5.3-11.7-6.4-23.6-4.8-36 1.8-13.9 7.8-28 17.3-42.7 14.9-18.9 31.5-25.5 47.8-20.4l0.2 0.9 0.5 0.4c-11.5 11.8-18.8 28.9-22.4 51-2.9 21-7.5 53.6 23.6 93 12.5 12.8 13.5 15.9 12.4 17.5-1.5 2.1-9.5-1.1-25.4-9.1l-7.7-3.8-0.4 0.4zM310 412.6c-15.4-5.3-31.1 1.2-45.6 19.6-9.6 14.7-15.5 28.8-17 42.2-2.1 12-0.1 23.8 4.7 35.1 7.8 20.6 25 36.7 40.6 50.9l8 3.3c7.7 3.5 15.6 6.7 23.6 9.5 0.4-0.5-0.1-3.3-12.6-16-31.6-39.8-26.5-72-22.9-94.1 2.8-22.1 10.1-39.2 21.2-50.5z" fill="#35383A" p-id="18774"></path><path d="M625.2 688c18-10 30-18 35-24 9-9 35-38 32-48-2-7-2-15-1-22 20-22 32-41 37-57 4-15 4-44 2-86 29 43 43 69 42 80s-8 17-19 20c2 11 4 20 8 28 3 8 4 17 3 27l-20 58-1-22c-4 15-4 24-1 28 6 5 7 19-2 10-7-6-8-4-5 5l-19-14 11 10c4 4 4 8 1 11l-4 20-2-13h-11l-6 6 6 6-7 7-9-2-5 5-10-2 3-13-12-1-6 7c-6 12-8 14-7 7s-1-10-7-7l-11-3-5-5s10 3 4-4c-5-4-10-6-16-7l2-5z" fill="#9ABD3C" p-id="18775"></path><path d="M659.2 724l-1-1v-4l-1-7h-6l-12-3-6-6 2 1h5s1-1-2-3c-4-4-9-7-15-8h-1l3-6c17-10 29-18 35-24 23-24 34-40 32-47-3-7-3-15-2-23 20-22 33-41 37-56s4-44 2-86v-2l1 1c29 44 43 70 42 81-1 10-8 17-19 20l8 28c4 8 5 17 3 27l-20 58-1-1-1-18c-3 13-3 21 0 24 4 3 5 9 5 12l-2 2c-2 0-4 0-6-3l-5-3s-1 1 1 8l1 1-2-1-14-11 7 7c4 4 5 8 1 11l-4 20h-1l-2-13h-11l-5 6 6 6-7 7-10-2-5 6-10-3 3-13-11-1-6 7-6 12z m-4-14l2 1c2 1 3 4 2 8v3l5-10 7-8 13 1-3 14 9 2 5-5 9 1 6-6-6-6 6-6h12l2 10 4-17c3-3 3-7-1-10l-11-11-1-1 19 14c-2-6-1-7 0-8l6 4 5 2 1-1c1-3-1-8-4-11-4-4-4-13 0-28h1l1 19 19-55c2-10 1-19-3-27l-8-28v-1h1c11-3 17-9 18-19s-13-37-41-79c3 42 2 70-2 85-4 16-17 35-37 57-1 7-1 15 2 22 3 10-24 39-32 48-6 6-18 14-36 24l-2 5c6 0 12 3 16 7 2 2 3 3 2 4l-4 1 3 3 11 3 4-1z" fill="#35383A" p-id="18776"></path><path d="M794.7 706.5c-13-17-21-29-24-38-5-12-19-51-11-60 4-5 8-12 10-20-11-30-15-53-12-70 2-17 13-45 33-85-45 30-70 50-73 61s0 19 10 27l-20 24c-7 7-11 15-14 25l-4 64 10-21c-2 16-6 25-11 27-8 3-14 16-2 11 9-3 10 0 3 7l24-6-15 6c-5 2-7 5-6 10l-4 20 8-11 11 5 3 8-9 3 4 10 10 2 2 7 11 2 2-15 12 4 4 10c0 14 1 17 3 9 2-7 5-8 10-3l12 1 6-2s-11-2-2-5c6-3 13-3 19-1v-6z" fill="#A2EA53" p-id="18777"></path><path d="M747.7 727.5c-1 0-2 0-2-14l-3-10-11-3-3 14-11-2-2-7-10-2-4-10 8-3-3-8-10-4-7 11-1-1 4-20v-6c1-2 3-4 6-5l10-3-19 5h-2l1-1 5-7c0-1-1-1-7 1h-7v-3c0-3 4-8 9-9 4-2 8-10 10-24l-8 18h-1l4-65c2-10 7-18 14-25 6-6 13-14 19-23-10-8-13-17-10-28 3-10 28-30 74-60l1-1v2c-20 39-32 68-34 84s2 40 12 69v1c-2 8-5 15-10 21s-1 26 11 59c3 8 11 21 24 37v7c-6-1-13-1-18 1l-4 2 5 2 2 1-8 3-12-2c-2-3-4-4-6-3-1 0-3 2-4 6 0 4-1 5-2 5z m-17-28l12 4 4 10 1 13 1-4c1-4 3-6 5-7s4 0 6 3l12 2 5-2c-2 0-5-1-5-3l4-3c6-2 12-2 18-1v-5c-13-17-21-29-24-37-4-13-18-51-11-61 5-5 8-12 10-20-10-30-14-53-12-70 2-16 13-44 33-83-44 29-69 49-72 59s0 19 10 27c-6 10-13 18-19 25-7 6-12 14-14 24l-4 61 8-18 1 1c-2 16-6 25-11 27-4 2-8 6-8 9v2c0 1 2 1 6-1 5-1 7-2 8 0 0 0 0 2-4 6l25-5-2 1-15 5-5 4v6l-4 18 6-9 12 4 3 10-8 3 3 8 10 2 3 8 9 1 3-14z" fill="#35383A" p-id="18778"></path><path d="M789.1 720.1l-5-14-5 10c-1-3-2-14-6-16-3-1-5-4-8-7l1 17s-1 11-3 12-6 4-7-8 2-14 1-18l-4-11s9 9 5-7c-3-11-6-13-10-6l2-8c0-8-3-7-1-14 3-7 3-6 2-10-2-4 2-9-3-8-5 2 0 20-8 19s-4-4-6-8-2-3 0-10c2-6 2-8 4-9l5-7-9 3s-7 13-7 3-8 1-4-11 8-13 7-16-5-2-13 0v-11c-1-2-5-1-12 4l-2-5-8 9c5-8 1-14 6-16s20-19 20-19 3-1 1-4l2-13 3-7c-5-1-7-3-9-7-1-5 0-26 8-36 5-7 26-22 64-44-20 39-31 67-33 82-4 30 15 49 11 79-8 3-8 22 1 57l8 23 11 15 7 18-6-1z" fill="#85E61B" p-id="18779"></path><path d="M760.1 723.1h-1c-2-1-3-4-3-9v-18l-4-11 1-1 4 3c1 0 2-2 0-9-2-8-4-9-5-10l-3 3-1 1-1 1 1-1v-2l1-6-1-6c0-2-1-4 1-8l1-4v-14l-2 1c-2 0-2 4-2 8-1 4-1 8-3 9l-3 1c-5 0-6-2-6-5l-1-3v-10l1-2c1-5 2-7 4-8l3-5-7 2c-1 2-4 8-6 7-2 0-2-2-2-4l-1-4-2-1h-2l1-6 5-12 2-4-3-2-9 3h-1v-12l-1-1-10 5v1l-2-5-10 11c-1-1-1-1 1-4 3-3 3-7 3-9 0-3 1-5 3-6 5-2 20-19 21-19 0 0 2-2 1-4s-1-7 1-13l2-7c-3-1-6-4-7-7-3-6 0-27 7-37 5-7 27-22 64-44l2-1-1 1c-20 39-31 67-33 83-2 15 2 27 6 39s7 24 5 39v1c-8 3-8 22 1 56l8 24 11 14 7 19-7-1-5-13-4 9h-1l-1-4c-1-4-2-10-5-12l-7-6 2 16c-1 2-2 11-4 12h-1l-2 1z m-6-36l3 9v18c0 5 1 8 2 8h3l1-1 3-11-2-19 1 2 8 7c3 2 4 8 5 12l1 4s2-2 4-10l1-1 5 15 5 1-6-18-11-14-9-24c-9-35-9-54 0-58 2-14-2-27-6-38-3-12-7-25-5-40s13-43 32-81c-37 22-58 36-63 43-7 10-9 30-7 36 1 3 4 6 8 7l-3 8c-1 6-2 10-1 12 1 3-1 4-2 5s-15 17-20 19c-2 1-2 2-3 5 0 3 0 6-2 9l7-8 1-1 2 6c7-5 9-5 10-5l1 1 1 11 8-2c2 0 4 0 4 2 1 2 0 3-1 5l-6 12-1 5h4l1 5 1 4 5-7h1l10-4-1 1-5 8-3 7v2l-1 2v5l1 2v3c1 3 1 4 6 5l2-1 2-9c0-4 1-8 3-9h3v8c2 4 2 4 0 7l-1 4c-2 4-1 5-1 7l1 6v5l2-1c3 0 4 3 6 10 2 6 2 9 0 10l-4-1z" fill="#35383A" p-id="18780"></path><path d="M821.2 674c-15-18-27-29-35-33-13-7-51-29-62-23-7 4-15 6-24 7-30-17-54-26-72-26-18-1-50 6-96 20 40-43 66-66 78-67 11-2 20 3 27 15 11-5 21-10 29-16s18-9 29-10l69 8-24 6c18 1 28-1 31-7 5-7 20-12 12 1-5 8-2 10 7 4l-11 24 9-15c3-5 7-6 12-4h22l-13 6 3 12 8 5 5-8 9 5 1 11 7 5v11l-16-1 2 14 10 6c14 3 17 4 9 5s-10 4-6 10v13l-4 7s0-13-5-4c-4 6-5 13-4 20l-7-1z" fill="#A9D82B" p-id="18781"></path><path d="M828.2 676l-7-2c-16-17-27-28-36-33-33-19-53-27-60-23-8 4-16 7-25 7-30-16-54-25-72-26-18 0-50 6-96 20l-2 1 2-2c40-43 66-65 78-67 11-1 21 4 27 16l29-16c8-6 18-10 29-11l69 8v1l-20 6c15 0 24-2 27-7s10-9 14-7c1 1 2 3-1 8s-3 6-2 7l8-4 1-1v2l-10 20 7-11c1-3 3-4 5-5s5 0 7 1l23-1v1l-13 6 2 12 8 4 5-8 10 6v11l8 4v12h-16l2 13 9 5c14 3 14 4 14 5l-5 1-7 3c-1 2 0 4 2 7v13l-5 8v-2l-2-5-3 3c-3 6-4 12-4 19v1z m-7-3l6 1c0-7 1-13 4-19 2-3 3-4 4-3 2 0 2 3 2 5l3-5 1-13c-3-3-3-5-2-7s3-3 8-4h4c-1-1-3-2-13-4h-1l-10-6-2-14h16v-10l-7-4v-11l-9-5-5 8-9-6-3-13 12-5-20 1c-3-1-5-2-7-1-2 0-3 2-5 5l-8 15-2 1 11-25c-6 3-8 3-8 2-1-1-1-3 2-7 2-4 2-6 1-7-3-2-10 2-12 7-4 5-14 7-32 7v-1l21-6-66-7c-11 0-21 4-29 10l-29 16h-1v-1c-6-11-15-16-26-15-12 2-37 24-77 66 45-14 77-20 95-20 18 1 42 10 72 26 9 0 17-3 24-7 11-6 49 16 62 23 8 5 20 16 35 33z" fill="#35383A" p-id="18782"></path><path d="M825.2 668l-14-8c9-2 13-3 11-4s-14-5-15-9l-7-10 19 5s11 1 13-2 5-5-8-8-15-1-19-3l-11-6s8 11-8 4c-11-5-13-9-5-12h-9c-8-1-6-4-14-2-8 1-7 2-11-1-4-2-10 0-8-4 3-5 21 3 21-5 1-8-2-6-7-8-5-3-2-3-10-2s-10 1-11 3l-8 3 5-9s15-5 4-7 3-8-10-6c-14 2-16 6-19 4-3-1-1-6 3-13l-12-3c-2-1 0-5 6-11l-5-3 11-7c-9 4-15-2-18 3-2 5-24 18-24 18s-1 3-4 1c-2-1-7-2-14-1l-9 1c0-4-2-7-6-10-5-3-27-5-39 1-9 4-28 24-60 61 46-14 77-21 95-20 32 1 48 25 81 27 5-9 25-5 61 11l23 13 13 14 19 11v-6z" fill="#7ED321" p-id="18783"></path><path d="M825.2 675l-19-11-13-14-24-14c-35-16-55-20-60-11-17-1-29-7-41-13s-24-13-41-13c-17-1-48 5-94 19h-1l1-1c31-36 51-56 59-60 12-6 35-4 40-1 4 2 6 5 6 10l8-2 14 1c3 2 5 0 5 0s21-13 24-18c1-3 4-3 7-2 2 0 6 0 11-2l3-1c0 1 1 1-13 9l5 3h-1c-6 6-7 9-7 10v1l12 3h1c-5 9-5 12-4 13l6-1c2-1 6-3 13-3h6l1 2v2l4 2c3 0 4 1 4 2 0 3-6 5-8 6l-5 7c6-1 7-2 7-3 1-1 3-2 9-2h2l3-1 6 1 2 1 3 2c3 1 5 1 4 7l-1 3c-2 2-7 2-11 1-4 0-8-1-9 1v2l2 1 6 1c3 2 3 2 6 1l5-1c4-1 6 0 8 1l6 2 7 1 2-1h1l-1 1-2 1-3 2c0 2 2 4 10 7 7 4 9 3 9 2 1-1-1-4-2-5l1-1 11 7 6 1c3 0 7 0 13 2 6 1 9 2 9 4 1 2 0 3-1 4v1c-2 2-12 2-14 2l-16-5 5 9c1 3 8 6 12 7l3 2 1 1c0 1-1 2-11 3l13 8v7z m-19-12l18 10v-5l-15-9h2l11-2v-1l-3-1c-5-2-12-4-13-8l-6-10-1-1 20 5c4 1 11 0 12-1l1-1 1-3c-1-1-4-3-9-4l-13-1-6-2-10-5c1 2 2 4 1 5s-4 1-10-2c-7-3-10-6-10-8l1-3h-5l-6-2c-2-1-4-2-8-1l-4 1c-4 1-4 1-8-1l-5-1-3-2v-2c2-3 6-2 10-2 4 1 9 1 11-1l1-2c0-5-1-5-4-6l-4-2-1-1-5-1-3 1h-2l-9 2c0 1-1 2-8 4h-1l5-10h1c3-1 7-3 7-5l-3-1-5-3v-3h-6l-13 3c-3 1-4 2-6 1-2-2-2-6 3-13l-12-3-1-2c0-1 2-5 7-10l-5-3 11-6-10 1c-3 0-5 0-7 2-2 5-22 17-24 18 0 0-2 2-5 1-2-2-7-2-14-1l-9 1c0-5-2-8-5-10-6-3-28-5-40 1-8 4-27 24-57 59 44-14 75-20 92-19 17 0 29 7 41 13s24 13 40 13c6-8 26-5 61 11l24 14 13 14z" fill="#35383A" p-id="18784"></path><path d="M362.3 395.5c9 1 15 2 18 1 5-1 9-5 11-3 3 2 0 6 2 8 3 2 4 7 1 7s-6 0-8 1l-2 7c1-1 3-1 5 2 4 3 5 4 2 7l-7 8-3 7 4 7 5 5 7 5-3 6 6 12s-1 11 1 12l6 11c1 2 3 1 5-1l13-20c3-3 8-9 10-8 1 1-6 4-22 10-2 0-3 1-3 4-1 3-7 1-5-4v-15l-3-6c2-5 2-8 1-9-2-2-2-10-1-12l3-8 3-9-1-7 1-8-9-7-3-7s-7-2-9-4c-2-1-15 2-15 2s-2-5-6-4c-2 0-7 3-4-3 2-7-7 2-6 6l6 7z" fill="#B9E446" p-id="18785"></path><path d="M409.3 500.5l-2-1-6-11c-2-2-1-11-1-13l-6-12 2-6-11-9-5-7 4-8 7-8 1-3-3-4-4-2h-1c0-4 1-6 2-7l5-1h3l1-1-2-6-1-4-1-3c-2-2-4-1-7 1l-4 2c-3 1-9 0-18-2h-1l-5-7c-1-3 3-7 5-9h1v6h3l1-1c4 0 6 3 6 5 3-1 14-4 16-2l8 4 4 7 9 7-1 8 1 8-3 8-3 9-1 5 2 6c1 1 1 4-1 9l3 6v15c-1 2 0 3 1 4l2 1 1-1c0-3 2-4 3-4l16-7h1c3-3 5-4 6-3v1l-6 3-4 5-6 8-7 11-4 3z m-14-37l6 12c0 5-1 11 1 12l6 11 1 1 3-3 7-11 6-8 2-3-14 5-2 4-2 2-3-1c-1-1-2-3-1-6v-14l-4-6c3-7 3-8 2-9l-2-6 1-6 3-8 3-9-1-7 1-8-9-7-3-6-9-4c-2-1-10 0-15 2l-1-1s-1-5-5-4l-1 1h-4v-5l1-1-3 3c-2 2-2 4-2 5 1 2 2 4 5 6 9 2 15 3 18 2l4-2c3-1 5-3 7-1 2 1 2 3 2 4v4c2 1 3 4 3 6l-3 2h-2l-5 1-1 5 4 2 4 5-1 4-7 8-4 7 5 6 11 10-2 6z m40 6l-3 2 3-2z" fill="#35383A" p-id="18786"></path><path d="M336.8 311.8c17.9 10.2 28.9 18.7 34.8 24.5 8.5 10.1 34.2 38.9 30.2 49.5-1.7 6.9-2.8 14.6-1.7 22.1 19.9 23 31.3 41.8 34.9 57.2 3.5 15.4 3.7 44.6 0.1 86.6 29.2-42.4 45-68.4 43.7-78.2-0.9-11.1-6.5-18.3-17.5-21 1.8-10.5 4.1-20.1 8.4-28.5 3.4-7.9 4.9-17 3.6-26.8l-18.8-57.7-0.9 21.6c-3.5-15.4-3.4-24.8 0.3-28.3 5.5-4.5 7.4-18.6-2.6-10.1-6.3 5-8.2 3.8-4.5-5.5l-19.5 14.2L438.5 321c4.6-4 4.7-7.6 1.3-11.3l-3.4-19-3 12.4-10.8-0.4-5.9-5.8 5.8-5.9-5.5-7.2-9.8 1.3-5.4-4.9-9.2 2.1 3.4 13.2-12.5 0.6-6.9-7.5c-4.5-11.3-6.1-13.8-5.5-7.2 0.6 6.7-1.8 10.5-7.5 6.9l-11 3.2-5.5 4.5s10.1-2.6 3.5 3.7c-4.6 4-10.2 6.2-15.6 7.1l1.8 5z" fill="#9ABD3C" p-id="18787"></path><path d="M433.9 553.6l0.3-1.4c3.6-42 4.3-71.7 0.8-87.1-4.4-14.9-16.4-34.5-34.9-57.2-1.1-7.5-0.8-14.7 1.7-22.1 1.7-6.9-8.2-23.1-30.5-48.1-5-6.3-17.4-15.1-34-25l-0.5-0.9-2.3-5.6c6.7-0.6 12.3-2.8 16.1-6.3L353 296h-5.8l-0.9 0.5 5.8-5.9 11.5-2.3 6.4 0.8c1.2-1.9 1.5-3.3 1.1-7.7l-0.4-4.5s2.2-0.2 7.3 12l6.4 6.6 11.1-0.9-3.4-13.2 10.6-1.8 4.5 5.5 9.8-1.3 6.9 7.5-6.3 5 5.9 5.8 10 1 3-12.4 0.9-0.5 3.1 20.4c1.9 1.2 2.9 2.9 2.3 5.6l-3.6 5.7-8 6.1 15.7-10.7 0.9-0.5-0.3 1.4c-2.2 6-1.7 6.9-1.1 7.7l5.1-3.1c2-2.4 3.7-3.5 5.6-2.3l1.9 1.2c0.7 3.1-1.5 9.1-4.4 12-3.7 3.5-4 10.7-1.5 24.4l1.6-18.5 0.9-0.5 17.9 58.2c1.8 10.6 0.3 19.7-3.1 27.6-3.9 7.1-7.1 17.2-8.9 27.7 11 2.7 17.4 9.3 18.3 20.5 0.4 10.3-14 36.6-44.6 78.7l-1.3 1.8zM401 407.4c19.4 22.2 30.5 42.3 34 57.7 4.4 14.9 4.6 44 0.4 85.2 28.9-41 43.3-67.4 42.8-77.6 0.1-9.4-6.3-16.1-17.8-19.6 2.7-11 5-20.6 8.4-28.5 4.2-8.4 4.9-17 3.6-26.8l-17.2-55.1-1.6 18.5-0.9 0.5c-3.5-15.4-3.4-24.8 0.3-28.3 3.7-3.5 5.6-8.1 4.9-11.2l-1-1.7-5.1 3.1c-3.7 3.5-6 3.6-6.5 2.8-1.4-0.3-1.9-1.2 0.3-7.2l-20 13.3 1.7-1 11.2-10.4 2.7-5.2c0.3-1.4 0.1-3.6-1.7-4.8l-2.4-17.3-3.1 10.3-11.7 0.1-5.5-7.2 5.8-5.9-5.5-7.2-9.2 2.1-5.9-5.8-8.4 1.6 3 14.6-12.5 0.6-7.4-8.4-5.4-10.8 0.4 4.5c0.7 3.1 0 5.8-1.7 6.9-1.2 1.9-3.9 1.2-6.7 0.6l-10.6 1.8-3.7 3.5 5 0.5-2.7 5.2c-4.6 4-9.4 5.7-16.1 6.3l1.7 4.8c17.9 10.2 29.8 18.1 34.8 24.5 8.5 10.1 34.2 38.9 30.7 50.4-2.2 5.8-2.5 13-1.4 20.6z" fill="#35383A" p-id="18788"></path><path d="M341.4 307.8l9.8 10.4c-0.2-8.1-0.1-11.7 1-10 1.9 1.2 6.8 11.1 10.4 11.2l9.8 4.6-7.1-15.6s-3.5-9.6-0.9-11.1c1.2-1.9 3.6-5.7 8.4 4.2 4 10.4 2.5 13.7 5.4 16.6l7.4 8.4s-11.2-4.9-2 8.2c6.1 8 10.2 9 10.5 1.8-0.9 0.5-0.7 2.7 1.1 7.5 2.8 6.5 5.4 4.9 5.1 12.1 0.6 6.7-0.8 6.4 2.1 9.2 3.5 3.7 2.1 9.2 5.9 5.8 3.7-3.5-6.8-16.9 0.2-18.9 7-1.9 5.5 1.3 9 5.1 2.1 3.4 1.9 1.2 2.5 7.9l-0.1 9.4-2 8.2 7.2-5.5s2-14.1 5.5-4.5 6-3.6 6.9 7.5c0.9 11.1-2.8 14.6-0.4 16.6 1.6 2.6 5 0.5 11.3-4.5 1.7 4.8 3 8.7 4.9 9.9 1.9 1.2 3.9-1.2 8.4-7.4l3.5 3.7c3.9-12.9 4.9-17 4-10.7-2 8.2 4.2 12.7 0.5 16.1-4.3 2.6-11.5 23.4-11.5 23.4s-2 2.4 0.4 4.5l3.2 11 0.2 8.1c3.6 0.1 6.4 0.8 9.3 3.7 3.5 3.7 9.1 22.6 5.6 34.1-2 8.2-15.6 28.2-41.1 61.3 4.2-41.2 4.5-69.5 0.1-84.4-6.4-27.7-29.6-37-36.5-65.6 7.2-5.5 0.4-22.5-19.9-49.9L363.2 332l-14.6-8.6-12.5-14.7 5.3-0.9z" fill="#7FC92E" p-id="18789"></path><path d="M434.8 552l0.2-1.8c4.3-42.3 4.4-69.9 0.1-84.2-3.1-13.8-10.3-22.7-17.9-32.2-7.4-9.3-15.1-18.9-18.6-33.4l-0.1-0.3 0.3-0.2c6.8-5.2-0.1-22.3-20-49.3L363 332.4l-14.7-8.7-13-15.4 6.5-1.1 9.2 9.6c-0.2-8.3 0.2-9.3 0.9-9.5 0.4-0.1 0.6 0.1 1 0.5 0.8 0.6 1.8 2 3 3.8 2.1 3.1 5 7.2 7 7.2h0.1l8.6 4-6.6-14.3c-0.7-1.7-3.4-9.9-0.8-11.7 0.6-0.9 1.6-2.5 3.3-2.5 1.8 0.1 3.8 2.4 6 6.8 1.9 5 2.6 8.5 3.1 10.9 0.6 2.7 0.8 4.2 2.2 5.6l9 10.1-2.1-0.9c-1.4-0.6-4-1.3-4.7-0.4-0.3 0.4-0.8 2.1 3.3 7.9 4.9 6.5 7.2 6.6 7.9 6.4 0.6-0.2 1-0.7 1.3-1.7-0.3-1.7-0.1-2.6 0.6-3.1l0.8-0.5v0.9c-0.1 1-0.2 1.9-0.4 2.7 0.2 1.1 0.6 2.6 1.4 4.8 1 2.4 2.1 3.8 2.9 4.8 1.4 1.7 2.4 3 2.2 7.6 0.2 2.1 0.2 3.5 0.2 4.6 0 2.1 0 2.5 1.8 4.3 1.4 1.6 2.1 3.4 2.6 4.9 0.3 1 0.6 1.8 1.1 1.9 0.1 0 0.6 0 1.6-1 1.4-1.3 0.3-4.7-0.9-8.1-1.1-3.4-2.2-6.9-1.1-9.2 0.4-0.8 1.2-1.4 2.3-1.8 5.1-1.4 6.1-0.2 7.5 2.2 0.5 0.9 1.1 1.9 2 3 0.6 0.9 1 1.4 1.2 1.7 1 1.3 0.9 1.3 1.3 6.4l-0.1 9.6-1.7 6.9 5.9-4.5c0.3-2 1.3-7.8 3.4-8.1 1.1-0.1 2 1 3 3.7 0.9 2.5 1.7 3.2 2.2 3.4 0.5 0.2 0.9-0.1 1.5-0.4 0.5-0.3 1.2-0.7 1.8-0.4 0.7 0.3 1.1 1.3 1.5 5.1 0.5 5.8-0.3 9.7-0.8 12.1-0.5 2.4-0.6 3.4 0.2 4.2l0.1 0.2c0.3 0.5 0.7 0.7 1.1 0.8 1.7 0.3 4.9-1.9 9.4-5.5l0.5-0.4 0.8 2.3c1.4 3.8 2.6 7.1 4.1 8 1.5 0.9 3.3-1.1 7.7-7.3l0.4-0.5 3.2 3.5c0.5-1.8 1-3.5 1.4-5 2.4-8.3 2.4-8.3 3.1-8.1 0.5 0.1 0.6 0.4 0.2 3.5-1 4 0 7.1 0.8 9.6 0.9 2.6 1.6 4.9-0.5 6.9-3.3 2-8.8 16-11.4 23.2l-0.1 0.2c-0.2 0.2-1.7 2.1 0.3 3.8l0.1 0.1 3.2 11.3 0.2 7.6c3.5 0.2 6.2 1 9.1 3.8 3.5 3.7 9.3 22.7 5.6 34.6-2 8.1-14.6 27.1-41.2 61.5l-0.8 1.2z m-35.2-151.4c3.4 14.1 11 23.5 18.3 32.7 7.3 9.1 14.9 18.7 18.1 32.6 4.2 14.2 4.2 41.3 0.1 82.7 25.3-33 38-52 39.9-59.8 3.5-11.4-2.2-30.2-5.4-33.6-2.8-2.7-5.4-3.4-9-3.6h-0.5l-0.3-8.5-3.1-10.7c-2-1.8-1.1-4-0.4-5 0.6-1.7 7.3-21 11.6-23.6 1.6-1.4 1-3.2 0.2-5.8-0.7-2.3-1.6-5-1.2-8.5-0.3 1-0.6 2.3-1.1 3.6-0.5 1.7-1.1 3.6-1.7 5.8l-0.3 0.9-3.7-4c-4.1 5.6-6.3 8.5-8.7 7.1-1.8-1.1-3-4.4-4.5-8.6l-0.3-1c-4.7 3.7-7.7 5.6-9.7 5.3-0.7-0.2-1.3-0.5-1.8-1.2-1.3-1.2-1-2.8-0.5-5.1 0.5-2.4 1.3-6.2 0.8-11.8-0.3-3.6-0.8-4.2-1-4.3-0.1 0-0.5 0.2-0.8 0.4-0.6 0.4-1.5 0.9-2.4 0.5-1-0.3-1.9-1.6-2.8-3.9-1.1-3-1.8-3-2-3-0.9 0.1-2 3.9-2.6 7.4v0.2l-8.4 6.5 2.3-9.6 0.1-9.4c-0.4-4.8-0.4-4.8-1.2-5.8-0.3-0.4-0.7-0.9-1.2-1.7-1-1-1.6-2.2-2.1-3.1-1.2-2.1-1.7-3-6.3-1.8-0.8 0.2-1.4 0.6-1.7 1.3-1 1.8 0.2 5.1 1.2 8.3 1.3 3.8 2.4 7.4 0.5 9.2-1 1-1.9 1.4-2.5 1.2-0.8-0.2-1.2-1.2-1.7-2.6-0.5-1.4-1-3-2.3-4.4-2.1-2-2.1-2.6-2.1-5 0-1 0-2.5-0.2-4.5 0.2-4.3-0.7-5.3-2-7-0.9-1.1-2-2.4-3.1-5-0.5-1.4-0.8-2.5-1.1-3.5-0.4 0.6-0.8 0.8-1.3 1.1-2.1 0.7-5.1-1.7-9.1-6.8-3.4-4.8-4.4-7.8-3.2-9.2 0.9-1 2.7-0.8 4-0.5l-6.2-6.9c-1.7-1.6-1.9-3.4-2.5-6.1-0.4-2.4-1.2-5.7-3-10.7-2.5-5-4.1-6.2-5.1-6.3-1.1 0-1.8 1.2-2.4 2v0.1l-0.1 0.1c-1.6 1-0.2 7 1.2 10.5l7.6 16.8-11-5.1c-2.6-0.2-5.3-4.4-7.7-7.7-1.1-1.7-2.2-3.2-2.8-3.7l-0.1-0.1c-0.4 1.6-0.2 7.5-0.1 9.6l0.1 1.3L340.9 308l-4.2 0.7 11.8 13.9 14.7 8.7 15.9 18.4c20.7 27.9 27.5 44.8 20.5 50.9z" fill="#1E2428" p-id="18790"></path><path d="M634.9 334.7l-7-6-3-11 4-6-2-2c-4-3-8-3-7-5 2-2 2-2 1-7-1-4-1-9-3-11s-9 1-8 3c2 1 0-7 2-9 1-1-1-2-5-3l-2-8 4-3-4-3-8-7c-2-4-2-7-1-8 1-2-4-6-5-11s0-12 2-11c1 2-1-5-9-7-8-1-11-5-9-7s4-8-2-9-12-3-10-5c1-1 0-4-5-7-7 3-9 3-5-2 5-6 3-7-4-6-5 0-8-2-9-7l-8-4c-5-1 0 6-7 4-7-3-9-2-11-3s-4 3-3 8-2 7-7 9c-5 1-13-2-5 5s1 12 13 14c13 2 15 0 18 2 2 3 1 11 1 11s12 0 9 4c-3 3-11 3-8 9s1 8 6 9 15 13 15 17 2 1 9 2c6 2 7 2 11 1s3 7 1 10c-2 1-1 4 1 8-3 0-5 2-5 5 0 6-2 4 5 7s2-2 5 4 5 7 10 9c5 1 7-2 9-4s-2 4-1 8c1 3 0 2 6 7s0 6 4 13c5 7 7 13 11 16s7 16 7 16 8 7 11 3c3-3 2-18 2-21l-4-11z" fill="#B4E337" p-id="18791"></path><path d="M581.2 268.5c0 3-4-7 5 6 8 13 9 19 9 23 0 5-9 7-9 16s18 9 9 16 11 14 11 24-11 15-11 23 2 21-25 26c-28 5-34-5-34 0s2-8-16 0-48 0-62 0-23 18-23 0 15-45 15-45 11-10 16-25c3-8 0-22 0-28 0-5-9-15-8-22s7-18 17-35l25-24 26-34s25 11 30 11 14-11 14 0v16l16 45c-4 3-5 5-5 7z" fill="#67B90E" p-id="18792"></path><path d="M438.2 411.5l-1-1c-2-1-2-3-2-8 0-18 14-45 14-45 1 0 12-10 16-25 2-6 1-14 1-21l-1-7-3-8c-2-4-5-10-4-14 1-7 6-19 16-35l25-24 27-35s25 11 30 11l5-2c3-2 6-3 8-2l1 5v16l16 46-5 5 5 7c9 13 10 19 9 23l-3 6c-3 2-6 5-6 10 0 3 4 5 7 7s5 3 5 5l-3 4-2 3c0 3 3 5 6 8 4 4 8 8 8 12 0 6-3 10-6 13-3 4-6 7-6 11v2c0 8 1 20-25 25-17 3-26 0-31-1l-3-1v3l-1-1-1-2c-2-1-6-2-14 2-13 6-32 3-47 1l-15-1c-5 0-10 2-13 5l-7 3z m12-53c-1 1-14 27-14 44l1 7c2 1 4 0 7-2 4-2 9-5 14-5l15 1c16 2 34 5 47-1 10-5 14-3 15-1h5c4 1 13 4 30 1 25-5 25-15 24-24v-2c0-4 3-8 6-11 3-4 6-8 6-13 0-4-4-8-8-11-3-3-6-6-6-9l3-4 2-3-5-4c-3-2-7-4-7-8 0-5 3-8 6-11 2-2 3-3 3-5 1-5 0-10-9-23l-4-6v1l-1-1v-1c1-2 2-4 5-6l-16-45v-16l-1-4c-1-1-4 0-6 2l-6 2c-5 0-27-9-30-11l-26 34-25 25c-10 16-15 27-16 34-1 4 2 9 4 14l3 8 1 7c1 7 1 15-1 22-4 14-15 24-16 25z" fill="#35383A" p-id="18793"></path><path d="M352.5 237.3l15 6c-5-8-6-12-4-11s12 8 16 6c3-1 7-2 12-1l-15-11s-8-9-7-11 0-8 11 0c10 7 10 11 14 13l12 4s-14 1 3 9c11 5 14 4 11-4l6 7c6 5 7 2 11 9s3 7 8 9 6 8 8 3-16-14-10-20 6-1 11 1c5 1 4 0 8 6s5 8 5 10c-1 1 0 4 3 9l3-10s-6-14 3-7 4-7 11 4 6 16 9 17 5-3 8-11c5 4 8 7 10 7s4-3 5-12l5 2c-3-15-3-20-1-13 2 10 10 10 8 16s2 30 2 30 0 3 3 4c2 1 5 4 9 10l5 7c3-2 7-3 11-1 6 2 21 17 25 31 2 9-1 37-8 84-19-44-34-72-46-85-22-24-50-21-73-45 4-10-12-23-47-40l-26-9-19-1-20-7 5-5z" fill="#7ED321" p-id="18794"></path><path d="M578.5 430.3l-1-1c-18-44-34-72-45-85-10.1-10-22.5-17.6-36-22-13-6-26-11-37-23v-1c3-9-13-22-47-38l-26-10-19-1-21-7 6-5 14 5-5-11h2l3 2c4 2 10 6 13 4l11-1-15-10c-1-1-8-9-7-12l1-1c0-1 0-2 2-3l9 4 10 10c2 1 3 3 5 3l12 5-1 1c-1 0-4 0-5 2l8 6c8 3 10 3 11 2v-7l1 1v2l5 5 6 3 6 6 2 4c2 3 2 3 5 4l5 4 2 1 1-1c0-2-2-5-5-8s-6-6-6-9l1-3c4-4 6-3 8-2l4 2 2 1 4 4 2 2 1 2 4 8c-1 1 0 2 2 7l3-8c-1-2-3-8-1-10l5 2c1 2 3 2 4 2l1-1 2-1c1 0 2 0 4 4 4 6 5 10 6 13 1 2 1 4 3 4 1 1 4-1 7-10l1-1c4 5 8 7 10 8h1c1-1 2-3 3-12v-1l5 2c-3-15-3-16-2-16l2 4c1 4 3 7 6 9 2 2 3 4 2 7-2 5 2 29 2 29v1s0 2 2 3c3 1 6 4 10 10l4 7c4-2 8-3 12-1 6 2 21 18 25 31 2 9-1 37-8 84l-1 2z m-118-132c11 12 24 18 36 23 13 5 25 10 37 23 11 12 26 40 45 83 7-46 10-74 7-82-3-13-18-29-24-31-4-2-7-1-11 2l-5-8c-4-6-7-9-9-10-4-1-3-4-3-4-1-2-4-25-2-30 1-3 0-4-2-6s-5-4-6-8l2 11v1l-6-2c0 7-1 11-3 12h-2l-9-7c-3 8-6 11-9 10-2 0-2-2-3-5l-6-12-3-4-1 1-2 1c-2 0-3 0-5-2l-4-2c-1 1 0 6 2 9l-4 11v-1c-4-6-4-8-3-9l-4-7-2-2-1-3c-2-3-2-3-4-3l-2-1-4-2c-2-1-3-2-7 2l-1 2c0 2 3 5 6 8s6 6 5 9l-1 2-3-2-4-3c-4-1-4-1-6-5l-2-4c-2-4-4-4-6-5-1-1-3-1-5-4l-4-3-1 3c-2 1-6 0-13-3-5-3-8-5-8-7l4-2-10-4-5-4-9-9-9-4-1 3-1 1 7 10 17 12h-2l-11 1c-4 2-10-2-14-4l-4-2 6 11v1l-16-6-4 3 19 7 20 1 25 10c36 17 51 30 48 39z" fill="#35383A" p-id="18795"></path><path d="M290.985193 439.815052a55 53 70.001 1 0 99.608051-36.252397 55 53 70.001 1 0-99.608051 36.252397Z" fill="#FF1D25" p-id="18796"></path><path d="M342.8 477.8c-23 0-44-14-52-37-5-14-5-29 1-43 11.9-26.8 43.2-38.8 69.9-27 0.7 0.3 1.4 0.6 2.1 1 13 6 23 18 28 32 10 29-4 60-32 71-5 2-11 3-17 3z m-3-109c-20.1 0.4-38.1 12.5-46 31-13.5 25.9-3.5 58 22.5 71.5 13.5 7 29.3 7.9 43.5 2.5 27-11 40-41 30-69-7.5-21.3-27.4-35.6-50-36z" fill="#35383A" p-id="18797"></path><path d="M331.3 407.7c-5 3-6 6-5 9 2 5-1-8 10-6 7 2 12 8 17 20 4-6 3-11-5-13-12-4-11-5-7-6l8-10c1-1 4 0 9 3 8 6 8-2 12-4 5-2-1 13-8 16s4 9 4 9 0 5-6 7-12-1-10 4-3 6-4 2c-2-5 7 9 4 10s-5-22-12-20-22-20-16-22l25-9h14l-23 12-7-2z" fill="#AED53D" p-id="18798"></path><path d="M321.2 639l-4 1 129 16 109 3 74-28-41 29 82-41c-51 31-69 44-54 38s64-30 145-73c-67 37-83 50-49 36 34-13 75-46 122-98l-108 64-21 3c66-28 132-65 163-99 68-75 119-143 115-155-3-7-8-11-15-11-154-81-308-67-462 42-230 163-138 143-247 185s-261 55-257 65 103-19 104-15-86 21-86 21 11 5 17 3l65-16-64 18 9 3 5 1 1 3 59-18-40 23 5 4 45-5 4 3-37 11 35-3-25 9 25-3-36 19 39-10-44 23v4l-2 5 29-10-34 20-6 10 36-17-44 28-8 8 38-19c-39 32-58 47-56 47-1 5 29-17 33-19s42-26 64-43 84-39 97-44 49-24 63-20c2 2 13 2 28 2z" fill="#FFCB8F" p-id="18799"></path><path d="M36.2 764l-1-1 14-13 40-32-35 17h-1l9-9 38-23-29 13h-1v-1l6-10 29-17-23 9h-1v-1l2-5-1-4h1l40-21-34 8h-1v-1l33-17-22 3v-1l22-8-32 3v-1c-1 0 0 0 0 0l36-11-3-3-45 5-6-4v-1h1l36-20-55 17v-1l-1-3h-4l-9-3h-1v-1h1c-0.3-0.7-0.7-1.3-1-2-6 3-18-3-18-3v-1c32-6 84-16 86-19-1-1-18 2-34 6-38 8-67 14-70 8v-1c3-5 26-9 62-15 52-10 132-25 196-49 52-20 58-26 76-46 19-21 52-56 170-140 131.3-106.5 314-122.7 462-41 8 0 13 4 16 12 5 13-54 87-115 154-12 14-31 28-54 43l19-11h1v1c-47 52-88 85-122 98-17 7-18 5-18 5-1-1-2-3 38-26-39.9 21.1-80.6 40.8-122 59 0-1-1-3 50-34l-72 36-1-1 38-27-71 27-108-4-130-15v-1c-14 0-22-1-24-2-10-3-35 8-51 15l-12 5-7 3c-22 8-71 26-90 41-22 17-60 41-64 43l-11 7c-13 8-19 12-22 12z m0-1c2 1 15-8 21-12s10-7 12-7c4-2 41-26 63-44 19-14 69-32 90-40l8-3 11-5c16-7 41-19 52-15 9.6 1.5 19.3 2.2 29 2v1l124 15 109 4 74-29v1c0 1 0 0 0 0l-35 25 76-37c-19 11.2-37 23.9-54 38 49.5-22.6 98.2-47 146-73-57 32-66 39-67 41l17-5c34-13 74-45 120-96l-106 62v1l-21 3-1-1h1c75-33 135-69 163-100 70-78 119-142 114-153-2-8-7-12-14-11-77-41-155-58-231-51s-154 38-230 92c-119 84-151 119-171 140-18 19-23 25-76 45-64 25-144 40-197 49-34 7-58 11-60 15 2 6 42-3 68-8 26-6 35-8 36-6v1c-3 4-72 17-86 20 4 1 11 4 16 2 21.5-5.3 43.2-10 65-14l-48 13-12 4h-1l7 2 4 1v1l1 2 59-17v1l-39 21 4 4 45-5h1l4 3v1h-1l-32 10 31-3v1l-22 8 21-2v1l-32 16 35-8h1l-45 24 1 3-1 4 27-10v1l-33 20-5 9 34-16h1v1l-44 27-7 6 36-18h1v1l-57 47z m743-209c-21 11-45 23-71 34l18-2 53-32z" fill="#35383A" p-id="18800"></path><path d="M121.2 588c-92 23-123 19-120 27 4 10 102-18 104-14s-87 20-87 20 12 6 18 3l64-15-63 18 9 3 4 1 1 3 59-18-40 22 6 4 45-5 4 4-38 11 36-4-25 10 24-3-35 18 38-9-44 23 1 3-2 6 28-11-33 20-6 10 36-16-44 27-9 9 39-20-57 47c-1 6 29-16 33-18s42-26 64-43c11-9 34-19 54-28 14-5-85-21-25-94 13 0-36 8-39 9z" fill="#FFB055" p-id="18801"></path><path d="M570.2 603h-1l-16-2c-77-13-132-22-188-78-2-1-2-3 0-5s3-1 4 0c55 55 110 64 185 76l16 2 3 4c0 2-2 3-3 3zM756.2 530l-53-6c-85-9-174-19-247-60-1-1-2-3-1-5s3-2 5-1c71 40 159 50 244 59l53 6c1 0 3 2 3 4-1 2-2 3-4 3zM819.2 437h-1c-92-4-171-22-255-58-1-1-2-3-1-4s2-3 4-2c83 35 161 53 253 57 2 0 3 2 3 4s-2 3-3 3z" fill="#F49C36" p-id="18802"></path><path d="M762.2 521l-52-6c-85.6-4-169.6-25.1-247-62l2-1c72 41 160 50 245 60l53 6 1 2-2 1zM823.2 433c-88-3.7-174.6-24.1-255-60h2c80.5 35.6 167 55.6 255 59l-2 1z" fill="#FFBC6F" p-id="18803"></path><path d="M845.2 504c-57 67-102 106-137 118s-18 1 51-34c-83 40-133 62-148 68s3-7 55-36l-76 37 35-27c-19 15-41 24-65 27l-127-1-147-21 225-5 207-52 127-74z" fill="#FFB055" p-id="18804"></path><path d="M930.2 416c-45 51-89 63-133 35-66-43-107-52-87-112 14-40 46-60 95-60 79 21 132 36 158 45 7 2 16 8 18 15 1 10-16 36-51 77z" fill="#FFB055" p-id="18805"></path><path d="M932.2 409c-45 52-89 63-133 35-66-42-107-52-86-112 13-40 45-60 94-60 79 21 132 36 158 45 8 2 17 9 18 15 2 11-15 36-51 77z" fill="#FFBC6F" p-id="18806"></path><path d="M828.981531 348.288388a18 11 41.003 1 0 14.434168-16.602855 18 11 41.003 1 0-14.434168 16.602855Z" fill="#35383A" p-id="18807"></path><path d="M884.2 367c1 4-8 2 10 8 18 5 34-12 34-12s29-32 38-24 7 13 5 23c-3 9 9-8 7-16-1-3-3-8-6-11-3-4-16-7-26 1-16 12-33 27-36 28-2 1-2 0 2-2l27-22c4-4 8-7 14-9 8-3 24-2 25 17 0 6-5 14-4 13 1-3 12-14 8-24-3-10-9-14-15-15-5-1-17 0-24 5l-33 21c-8 6-28 16-26 19z" fill="#E8983D" p-id="18808"></path><path d="M881.2 365c1 3-7 2 11 7 18 6 34-11 34-11s29-32 38-25 7 14 5 23c-3 10 9-8 6-15l-6-12c-2-3-15-6-25 1-16 12-33 28-36 29-2 1-2 0 1-3l28-21c3-4 8-7 14-9 8-3 24-3 25 16 0 6-5 14-4 13 1-2 11-13 8-23s-9-15-15-16c-6 0-17 1-24 6l-33 21c-9 6-28 16-27 19z" fill="#FFFFFF" p-id="18809"></path><path d="M689.2 425c-80-11-122-15-129-13s29 14 108 36c-60 2-91 6-93 10-2 6 102-3 110 5 7 8 33-1 37-17 3-11-8-18-33-21z" fill="#EE9C3D" p-id="18810"></path><path d="M688.2 417c-80-6-123-8-129-5-7 2 30 12 109 30-60 5-90 10-91 15-2 6 101-8 109-1 8 8 34-3 37-19 2-11-10-17-35-20z" fill="#FFDEB9" p-id="18811"></path><path d="M626.2 546c-58 43-96 68-114 76-27 13 125-47 130-65 4-11-1-15-16-11z" fill="#EE9C3D" p-id="18812"></path><path d="M622.2 542c-56 45-93 71-111 80-27 14 123-51 128-69 3-12-2-16-17-11z" fill="#FFDEB9" p-id="18813"></path><path d="M36.2 766l-1-1-1-1c-1-2 0-3 4-6l10-9 29-23-23 11-2-1v-2l9-9 18-11-8 3h-2l-1-2 7-10v-1l15-9-8 3h-2v-2l1-5v-3c-1-1 0-2 1-2l30-16-23 6-3-2 1-2 26-13-14 1c-1 1-1 0-2-1l1-2 12-5-21 2-2-1 1-3 34-10h-1l-44 5-1-1-6-4-1-2 1-1 24-13-41 12-2-1-1-2-3-1h-1l-7-3c-1 1-2 1-3-1v-1c-7 1-16-3-17-3l-2-3 2-1 20-4c-25 5-37 5-39 0v-2c3-5 20-8 63-16 52-10 132-24 195-49 53-20 58-26 76-45 20-21 52-56 171-140 48-34 96-59 144-75 41-13 81-19 121-19h2c74 0 133 23 172 38l24 9c9-1 12 6 14 12l3 6c1 2 4 8-31 55-22 29-52 65-85 101-9.4 10.6-19.8 20.3-31 29-36.9 46.1-84.2 82.8-138 107-4 1-6 1-7-1-1-1-1-2 4-6l-80 39c-4 2-7 3-8 0-1-1-1-3 24-19l-44 22-3-1c-1-1 0-2 1-3l28-19-59 22h-1l-109-3-129-16-1-1c-14 0-22-1-24-2-10-3-35 9-50 16l-12 5-7 2c-21 8-71 26-89 41-21 16-60 41-65 43l-10 7c-15 9-20 13-23 13z m56-52l2 1v2l-49 40 12-8 11-7c4-1 42-26 63-43 19-15 69-33 90-41l8-3 11-4c18-8 42-19 53-16 3 1 12 2 29 2l1 1 123 16 109 3 73-28 3 1c1 1 0 2-1 3l-20 14 59-30 3 1-1 3-52 33c48.7-22.3 96.7-46 144-71v3l-63 36c3 0 6-2 11-4 45.3-22.6 85.2-54.6 117-94v-3c16-11 29-22 39-33 32-36 62-72 84-101 33-44 31-50 30-50l-2-6c-3-7-5-11-11-10h-1l-25-10c-38-15-97-37-170-38h-2c-39 0-79 7-119 20-48 15-96 40-144 74-118 84-150 119-170 140-18 19-24 25-77 46-64 24-144 39-196 49-29 5-55 10-59 13 1 1 6 2 23-1l43-9c33-7 36-8 37-5v2c-1 2-2 4-46 13 14-2.1 28-4.1 42-6l-2 2-48 14-8 2 2 1 4 1 1 1 1 2 57-18 3 2c1 1 0 2-1 2l-38 21 2 2 45-5h1l4 3 1 2-1 2-19 5 16-1 2 1-1 2-10 4 8-1 2 2c1 1 0 2-1 2l-20 11 22-6 3 1-1 3-43 23v4l24-9c1-1 2 0 2 1 1 1 0 2-1 2l-32 20-3 4 30-13c1-1 2 0 3 1s0 2-1 2l-40 25 24-12h1z" fill="#35383A" p-id="18814"></path><path d="M526.2 393c-3-9-10-10-16-9l1-13c6-1 13 0 16 9l-1 13" fill="#F57323" p-id="18815"></path><path d="M690.2 427c-4-8-14-8-21-8l1-11c7-1 17 0 21 8l-1 11" fill="#F8E71C" p-id="18816"></path><path d="M406.2 509c-4-8-14-8-21-8l1-11c7-1 17 0 21 8l-1 11" fill="#F8E71C" p-id="18817"></path><path d="M781.2 510c-2-6-8-6-13-6l1-8c4 0 11 0 13 6l-1 8" fill="#F57323" p-id="18818"></path><path d="M660.2 504c10-5 23-1 24 13l-8 20c-1-14-14-18-25-13l9-20" fill="#68CD5B" p-id="18819"></path><path d="M615.2 418c7-4 14-1 15 7l-6 13c0-9-8-11-14-8l5-12" fill="#68CD5B" p-id="18820"></path><path d="M516.2 619c7-3 14-1 15 7l-6 13c0-8-8-11-14-8l5-12" fill="#68CD5B" p-id="18821"></path><path d="M531.2 460c9-3 14-13 17-20l10 2c-3 7-8 17-17 21l-10-3" fill="#68CD5B" p-id="18822"></path><path d="M571.2 524c-4 7 1 15 6 21l-10 4c-4-5-9-13-5-20l9-5z" fill="#F8E71C" p-id="18823"></path><path d="M806.2 495l-5-13c7 4 15-4 18-14l5 13c-3 10-11 18-18 14z" fill="#F8E71C" p-id="18824"></path></svg>