<?xml version="1.0" standalone="no"?><!DOCTYPE svg PUBLIC "-//W3C//DTD SVG 1.1//EN" "http://www.w3.org/Graphics/SVG/1.1/DTD/svg11.dtd"><svg t="1608791808199" class="icon" viewBox="0 0 1086 1024" version="1.1" xmlns="http://www.w3.org/2000/svg" p-id="1438" xmlns:xlink="http://www.w3.org/1999/xlink" width="67.875" height="64"><defs><style type="text/css"></style></defs><path d="M1083.525992 398.385345a53.574479 53.574479 0 0 0-43.244252-37.039912l-308.821039-54.350021-139.597657-277.30299a54.287978 54.287978 0 0 0-96.508514 0l-138.20168 277.30299-308.821039 55.839063a53.760609 53.760609 0 0 0-31.642136 92.165475L241.969272 661.511417l-57.917517 299.390442a54.070826 54.070826 0 0 0 21.715191 52.736893 58.444886 58.444886 0 0 0 57.141975 3.939756l280.281073-137.084899 279.505531 137.084899a54.101848 54.101848 0 0 0 78.764101-56.707671l-56.366432-299.390441 223.139099-207.845401a53.481413 53.481413 0 0 0 15.510851-55.156585z m0 0" p-id="1439" fill="#f4ea2a" data-spm-anchor-id="a313x.7781069.0.i9" class="selected"></path></svg>